<svg width="117" height="28" viewBox="0 0 117 28" fill="none" xmlns="http://www.w3.org/2000/svg">
<path d="M11.8455 24.5222C9.28806 24.5253 6.82024 23.562 4.91905 21.8184C3.01786 20.0749 1.81831 17.6749 1.55222 15.0824C1.28613 12.4898 1.97241 9.88878 3.47842 7.78196C4.98443 5.67513 7.20323 4.21212 9.70598 3.67571C12.2087 3.1393 14.8178 3.56757 17.0287 4.87775C19.2397 6.18792 20.8956 8.28698 21.6765 10.7692C22.4574 13.2514 22.3078 15.9406 21.2566 18.3169C20.2053 20.6932 18.3272 22.588 15.9851 23.635C14.6801 24.2187 13.2706 24.5208 11.8455 24.5222ZM11.8455 7.1173C10.9133 7.11419 9.99078 7.31031 9.13749 7.69301C7.49585 8.42505 6.20676 9.79178 5.5538 11.4926C4.90084 13.1934 4.93754 15.0889 5.65576 16.7621C6.37398 18.4354 7.71495 19.7493 9.38363 20.4148C11.0523 21.0803 12.9119 21.043 14.5536 20.3109C15.974 19.6781 17.1373 18.566 17.8478 17.1617C18.5583 15.7574 18.7727 14.1465 18.4549 12.6001C18.1371 11.0536 17.3065 9.66584 16.1028 8.67019C14.8992 7.67454 13.3957 7.13173 11.8455 7.13307" fill="white"/>
<path d="M13.1573 28C12.4989 27.9676 11.8435 27.8885 11.1959 27.7634L12.9484 18.4498C13.1542 18.4886 13.3623 18.5136 13.5713 18.5247H13.7685L13.7221 27.9882C13.5325 27.9882 13.3353 27.9882 13.1573 27.9882M16.2522 27.7673L14.5655 18.4419C14.8296 18.3897 15.0886 18.3131 15.3392 18.2132L18.7823 27.026L18.6624 27.0734C17.8769 27.3813 17.0648 27.6137 16.2367 27.7673M8.73547 27.0379C7.94817 26.7237 7.19061 26.337 6.47228 25.8825L11.3971 17.8307C11.6307 17.9775 11.8767 18.1029 12.1321 18.2053L8.73547 27.0379ZM20.9952 25.9023L16.0935 17.8347C16.3246 17.6896 16.5422 17.5233 16.7435 17.3378L23.0262 24.3408C22.3996 24.9308 21.7196 25.4589 20.9952 25.918M4.44511 24.3408C3.81986 23.7582 3.24873 23.118 2.73903 22.4284L10.2132 16.7267C10.3791 16.9482 10.5643 17.1541 10.7665 17.3418L4.44511 24.3408ZM24.74 22.4481L17.3161 16.7267C17.4812 16.5024 17.6261 16.2636 17.7493 16.013L26.0979 20.2479C25.7182 21.0178 25.2715 21.7516 24.7632 22.4402M1.42755 20.2163C1.23799 19.822 1.06778 19.4277 0.913037 19.0334C0.758291 18.6391 0.634494 18.2447 0.526172 17.8268L9.49371 15.2362C9.5324 15.3702 9.57489 15.5082 9.62518 15.6305C9.67548 15.7527 9.73358 15.8947 9.79548 16.0248L1.42755 20.2163ZM27.0109 17.8504L18.0472 15.248C18.1224 14.98 18.173 14.7054 18.1982 14.4278L27.4829 15.315C27.4034 16.1733 27.2454 17.0221 27.0109 17.8504ZM0.0542089 15.2796C-0.00120937 14.6464 -0.0141727 14.01 0.0154847 13.375C0.0154847 13.1424 0.0386946 12.9176 0.0619065 12.6889L9.34665 13.5879C9.34665 13.6629 9.34665 13.7338 9.34665 13.8088C9.33313 14.0123 9.33313 14.2165 9.34665 14.42L0.0542089 15.2796ZM18.1982 13.5998C18.1745 13.3233 18.1239 13.0499 18.0472 12.7836L27.0148 10.1811C27.2473 11.0111 27.404 11.8611 27.4829 12.7205L18.1982 13.5998ZM9.49758 12.7717L0.533917 10.1496C0.768923 9.32182 1.07845 8.51794 1.45853 7.74822L9.79548 11.9949C9.67252 12.2479 9.57279 12.5119 9.49758 12.7836M17.7493 11.9949C17.6279 11.7466 17.4842 11.5104 17.32 11.2891L24.7671 5.57951C25.279 6.26843 25.7259 7.00513 26.1018 7.77977L17.7493 11.9949ZM10.2365 11.2694L2.80094 5.54798C3.31459 4.86047 3.88817 4.22171 4.51472 3.63951L10.7896 10.6582C10.5875 10.8445 10.4024 11.0491 10.2365 11.2694ZM16.7822 10.6701C16.5785 10.4817 16.3584 10.3128 16.1245 10.1653L21.0377 2.10169C21.7588 2.56212 22.4362 3.09016 23.061 3.67893L16.7822 10.6701ZM11.4397 10.1575L6.54963 2.08198C7.27135 1.63204 8.03143 1.24934 8.82057 0.938497L12.1708 9.78682C11.9123 9.88636 11.6637 10.0105 11.428 10.1575M15.374 9.79074C15.1242 9.68861 14.865 9.61202 14.6003 9.56206L16.3296 0.240561C17.1552 0.402796 17.9646 0.641691 18.7475 0.954261L15.374 9.79074ZM12.9639 9.55811L11.2462 0.236614C12.0831 0.077229 12.9326 -0.00196873 13.784 3.7164e-05V9.46348C13.5139 9.46413 13.2446 9.49053 12.9794 9.54235" fill="#009BDD"/>
<path d="M34.2022 18.6273H31.943V11.7112H29.4902V9.7041H36.6434V11.7112H34.2022V18.6273Z" fill="white"/>
<path d="M44.1329 18.6078H37.7109V9.68457H44.1329V11.6916H39.9703V13.0796H44.0401V15.0906H39.9703V16.6008H44.1329V18.6078Z" fill="white"/>
<path d="M54.1894 18.6273H51.5239L49.6205 15.6306L47.7172 18.6273H45.0361L48.0963 14.0534L45.2334 9.7041H47.899L49.6205 12.4998L51.315 9.7041H53.9921L51.1409 14.0376L54.1894 18.6273Z" fill="white"/>
<path d="M63.2147 18.6273H60.9554V15.0431H57.3188V18.6273H55.0596V9.7041H57.3188V13.036H60.9554V9.7041H63.2147V18.6273Z" fill="white"/>
<path d="M72.3242 17.4919C71.4025 18.3311 70.2099 18.7949 68.974 18.7949C67.7381 18.7949 66.5454 18.3311 65.6237 17.4919C64.7696 16.6069 64.291 15.4152 64.291 14.1738C64.291 12.9324 64.7696 11.7407 65.6237 10.8557C66.5454 10.0165 67.7381 9.55273 68.974 9.55273C70.2099 9.55273 71.4025 10.0165 72.3242 10.8557C73.1783 11.7407 73.657 12.9324 73.657 14.1738C73.657 15.4152 73.1783 16.6069 72.3242 17.4919ZM68.9779 16.7546C69.2997 16.7675 69.6203 16.7081 69.9172 16.5807C70.214 16.4533 70.4797 16.2609 70.6955 16.0172C71.1205 15.4999 71.3534 14.8466 71.3534 14.1718C71.3534 13.4971 71.1205 12.8438 70.6955 12.3265C70.4705 12.0928 70.2019 11.9072 69.9057 11.7805C69.6094 11.6538 69.2914 11.5885 68.9701 11.5885C68.6489 11.5885 68.3308 11.6538 68.0345 11.7805C67.7383 11.9072 67.4698 12.0928 67.2447 12.3265C66.8197 12.8438 66.5868 13.4971 66.5868 14.1718C66.5868 14.8466 66.8197 15.4999 67.2447 16.0172C67.4632 16.2617 67.7316 16.4545 68.031 16.5818C68.3305 16.7092 68.6537 16.7682 68.9779 16.7546Z" fill="white"/>
<path d="M76.9859 18.6273H74.7305V9.7041H81.1486V11.7112H76.9859V18.6273Z" fill="white"/>
<path d="M84.5142 18.6272H82.2549V9.70393H86.642C87.0513 9.68063 87.4609 9.74392 87.8451 9.88982C88.2292 10.0357 88.5796 10.2611 88.8742 10.5517C89.142 10.8319 89.3519 11.164 89.4915 11.5284C89.631 11.8928 89.6974 12.282 89.6866 12.6731C89.6971 13.0617 89.6305 13.4485 89.4909 13.8103C89.3513 14.1721 89.1416 14.5015 88.8742 14.7787C88.5799 15.07 88.2297 15.2961 87.8455 15.4427C87.4614 15.5893 87.0516 15.6532 86.642 15.6304H84.5142V18.6272ZM86.3402 13.6234C86.6195 13.637 86.8943 13.5474 87.1139 13.371C87.2112 13.2847 87.2882 13.1771 87.3391 13.0562C87.39 12.9354 87.4135 12.8044 87.4079 12.6731C87.4144 12.5399 87.3914 12.4069 87.3405 12.284C87.2896 12.1611 87.2121 12.0515 87.1139 11.9633C86.8943 11.7869 86.6195 11.6973 86.3402 11.711H84.5142V13.6234H86.3402Z" fill="white"/>
<path d="M107.788 18.6273H105.529V11.7112H101.892V18.6273H99.6328V9.7041H107.788V18.6273Z" fill="white"/>
<path d="M117 18.6273H114.744V11.7112H111.104V18.6273H108.845V9.7041H117V18.6273Z" fill="white"/>
<path d="M93.3814 16.0802L90.2207 9.69629H92.7663L94.6542 13.8681L96.5575 9.69629H99.107L94.6696 18.6274H92.0235C92.0235 18.6274 93.2421 16.3325 93.3814 16.0802Z" fill="white"/>
</svg>
