<svg width="68" height="68" viewBox="0 0 68 68" fill="none" xmlns="http://www.w3.org/2000/svg">
<path d="M53.0911 51.386C52.5023 55.1911 49.2096 58 45.3377 58H10.2297C7.34144 58 5 55.6719 5 52.8V34.6C5 31.7281 7.34144 29.4 10.2297 29.4H16.375C17.4084 29.4 18.3448 28.7949 18.7645 27.856L27.9666 7.26912C28.3115 6.49737 29.0813 6 29.9306 6C33.4917 6 36.3785 8.87038 36.3785 12.4112V21.6C36.3785 23.0359 37.5492 24.2 38.9934 24.2H48.1537C52.9615 24.2 56.6382 28.4611 55.9071 33.186L53.0911 51.386Z" fill="url(#paint0_linear_1_2305)"/>
<path d="M24.0744 62V33.4M11 38.6V56.8C11 59.6719 13.3414 62 16.2297 62H51.3377C55.2096 62 58.5023 59.1911 59.0911 55.386L61.9071 37.186C62.6382 32.4611 58.9615 28.2 54.1537 28.2H44.9934C43.5492 28.2 42.3785 27.0359 42.3785 25.6V16.4112C42.3785 12.8704 39.4917 10 35.9306 10C35.0813 10 34.3115 10.4974 33.9666 11.2691L24.7645 31.856C24.3448 32.7949 23.4084 33.4 22.375 33.4H16.2297C13.3414 33.4 11 35.7281 11 38.6Z" stroke="#003268" stroke-width="2" stroke-linecap="round" stroke-linejoin="round"/>
<defs>
<linearGradient id="paint0_linear_1_2305" x1="22" y1="12" x2="40.5" y2="62" gradientUnits="userSpaceOnUse">
<stop stop-color="#3D56E4"/>
<stop offset="1" stop-color="#3D56E4" stop-opacity="0"/>
</linearGradient>
</defs>
</svg>
