<svg width="68" height="68" viewBox="0 0 68 68" fill="none" xmlns="http://www.w3.org/2000/svg">
<path d="M30.4999 58C45.1355 58 57 46.1355 57 31.5C57 16.8645 45.1355 5 30.4999 5C15.8644 5 4 16.8645 4 31.5C4 46.1355 15.8644 58 30.4999 58Z" fill="url(#paint0_linear_1_2295)"/>
<path d="M43.875 54.3573L48.975 59.4581L60.45 47.9812M62.9621 37.9067C62.9873 37.4424 63 36.9748 63 36.5043C63 22.4187 51.5833 11 37.5 11C23.4167 11 12 22.4187 12 36.5043C12 50.3669 23.0581 61.6463 36.8331 62M37.5 21.2017V36.5043L47.0328 41.2715" stroke="#003268" stroke-width="2" stroke-linecap="round" stroke-linejoin="round"/>
<defs>
<linearGradient id="paint0_linear_1_2295" x1="45.7034" y1="53.2118" x2="15.2993" y2="9.79035" gradientUnits="userSpaceOnUse">
<stop stop-color="#3D56E4" stop-opacity="0"/>
<stop offset="0.8" stop-color="#3D56E4"/>
</linearGradient>
</defs>
</svg>
