<svg width="68" height="68" viewBox="0 0 68 68" fill="none" xmlns="http://www.w3.org/2000/svg">
<path d="M28.4481 6.31952C28.1004 6.14468 27.9266 6.05726 27.7443 6.02286C27.5829 5.99238 27.4171 5.99238 27.2557 6.02286C27.0734 6.05726 26.8996 6.14468 26.5519 6.31952L1 19.1713L14.9174 26.1713L1 33.1713L13.9233 39.6713L1 46.1713L26.5519 59.0231C26.8995 59.198 27.0734 59.2854 27.2557 59.3198C27.4171 59.3503 27.5829 59.3503 27.7443 59.3198C27.9266 59.2854 28.1004 59.198 28.448 59.0232L54 46.1713L41.0767 39.6713L54 33.1713L40.0826 26.1713L54 19.1713L28.4481 6.31952Z" fill="url(#paint0_linear_1_2280)"/>
<path d="M27.25 28.8357L14 35.5L39.5519 48.3518C39.8995 48.5266 40.0734 48.6141 40.2557 48.6485C40.4172 48.679 40.5829 48.679 40.7443 48.6485C40.9266 48.6141 41.1005 48.5266 41.4481 48.3518L67 35.5L53.75 28.8357M27.25 42.1643L14 48.8287L39.5519 61.6805C39.8995 61.8553 40.0734 61.9427 40.2557 61.9771C40.4172 62.0076 40.5829 62.0076 40.7443 61.9771C40.9266 61.9427 41.1005 61.8553 41.4481 61.6805L67 48.8287L53.75 42.1643M14 22.1713L39.5519 9.31954C39.8995 9.14469 40.0734 9.05726 40.2557 9.02286C40.4171 8.99238 40.5829 8.99238 40.7443 9.02286C40.9266 9.05726 41.1005 9.14469 41.4481 9.31954L67 22.1713L41.4481 35.0231C41.1005 35.198 40.9266 35.2854 40.7443 35.3198C40.5829 35.3503 40.4171 35.3503 40.2557 35.3198C40.0734 35.2854 39.8995 35.198 39.5519 35.0231L14 22.1713Z" stroke="#003268" stroke-width="2" stroke-linecap="round" stroke-linejoin="round"/>
<defs>
<linearGradient id="paint0_linear_1_2280" x1="19.5" y1="16" x2="35.5" y2="59" gradientUnits="userSpaceOnUse">
<stop stop-color="#3D56E4"/>
<stop offset="1" stop-color="#3D56E4" stop-opacity="0"/>
</linearGradient>
</defs>
</svg>
