<svg width="68" height="68" viewBox="0 0 68 68" fill="none" xmlns="http://www.w3.org/2000/svg">
<path d="M51 2H16C13.2386 2 11 4.21723 11 6.95232V41.6185C11 44.3536 13.2386 46.5709 16 46.5709H19.75L25.5717 52L33.5 44.0947L41.482 52L47.25 46.5709H51C53.7614 46.5709 56 44.3536 56 41.6185V6.95232C56 4.21723 53.7614 2 51 2Z" fill="url(#paint0_linear_1_1275)"/>
<path d="M26.75 53.5709H23C20.2386 53.5709 18 51.3536 18 48.6185V13.9523C18 11.2172 20.2386 9 23 9H58C60.7614 9 63 11.2172 63 13.9523V48.6185C63 51.3536 60.7614 53.5709 58 53.5709H54.25M40.5 51.0947C44.6421 51.0947 48 47.7689 48 43.6662C48 39.5636 44.6421 36.2378 40.5 36.2378C36.3579 36.2378 33 39.5636 33 43.6662C33 47.7689 36.3579 51.0947 40.5 51.0947ZM40.5 51.0947L40.5536 51.0942L32.5717 59L25.5006 51.9964L33.0491 44.5198M40.5 51.0947L48.482 59L55.5531 51.9964L48.0046 44.5198M33 18.9046H48M28 27.5712H53" stroke="#003268" stroke-width="2" stroke-linecap="round" stroke-linejoin="round"/>
<defs>
<linearGradient id="paint0_linear_1_1275" x1="27.7753" y1="17.1163" x2="43.327" y2="46.8622" gradientUnits="userSpaceOnUse">
<stop stop-color="#3D56E4"/>
<stop offset="1" stop-color="#3D56E4" stop-opacity="0"/>
</linearGradient>
</defs>
</svg>
