<svg width="68" height="68" viewBox="0 0 68 68" fill="none" xmlns="http://www.w3.org/2000/svg">
<path d="M36.15 24.3333H48.87C51.8383 24.3333 53.3224 24.3333 54.4562 24.9146C55.4534 25.426 56.2642 26.2419 56.7723 27.2454C57.35 28.3862 57.35 29.8797 57.35 32.8667V51H36.15H9.65V11.5333C9.65 8.54639 9.65 7.05291 10.2277 5.91205C10.7358 4.90852 11.5466 4.09262 12.5439 3.5813C13.6776 3 15.1617 3 18.13 3H27.67C30.6383 3 32.1224 3 33.2562 3.5813C34.2534 4.09262 35.0642 4.90852 35.5723 5.91205C36.15 7.05291 36.15 8.54639 36.15 11.5333V24.3333Z" fill="url(#paint0_linear_1_1191)"/>
<path d="M43.15 31.3333H55.87C58.8383 31.3333 60.3224 31.3333 61.4562 31.9146C62.4534 32.426 63.2642 33.2419 63.7723 34.2454C64.35 35.3862 64.35 36.8797 64.35 39.8667V58M43.15 58V18.5333C43.15 15.5464 43.15 14.0529 42.5723 12.9121C42.0642 11.9085 41.2534 11.0926 40.2562 10.5813C39.1224 10 37.6383 10 34.67 10H25.13C22.1617 10 20.6776 10 19.5439 10.5813C18.5466 11.0926 17.7358 11.9085 17.2277 12.9121C16.65 14.0529 16.65 15.5464 16.65 18.5333V58M67 58H14M25.925 20.6667H33.875M25.925 31.3333H33.875M25.925 42H33.875" stroke="#003268" stroke-width="2" stroke-linecap="round" stroke-linejoin="round"/>
<defs>
<linearGradient id="paint0_linear_1_1191" x1="26.7575" y1="17.5116" x2="39.8715" y2="48.2848" gradientUnits="userSpaceOnUse">
<stop stop-color="#3D56E4"/>
<stop offset="1" stop-color="#3D56E4" stop-opacity="0"/>
</linearGradient>
</defs>
</svg>
