<svg width="80" height="80" viewBox="0 0 80 80" fill="none" xmlns="http://www.w3.org/2000/svg">
<path d="M14.444 6.71885C19.0486 3.64217 24.4621 2 30 2C37.4233 2.0091 44.5399 4.96201 49.7889 10.2111C55.038 15.4601 57.9909 22.5767 58 30C58 35.5379 56.3578 40.9514 53.2811 45.556C50.2045 50.1605 45.8315 53.7494 40.7151 55.8686C35.5988 57.9879 29.9689 58.5424 24.5375 57.462C19.106 56.3816 14.1169 53.7148 10.201 49.799C6.28515 45.8831 3.61841 40.894 2.53803 35.4625C1.45764 30.0311 2.01213 24.4012 4.13138 19.2849C6.25064 14.1685 9.83947 9.79553 14.444 6.71885Z" fill="url(#paint0_linear_1_1196)"/>
<path d="M53.7406 36.6455H52.4942C52.1989 35.5564 51.7626 34.5106 51.1964 33.5346L52.083 32.6476C52.3155 32.4111 52.4448 32.0922 52.4428 31.7605C52.4424 31.4293 52.3134 31.1113 52.083 30.8735L49.1024 27.8915C48.987 27.7754 48.8499 27.6833 48.6988 27.6204C48.5478 27.5575 48.3858 27.5252 48.2222 27.5252C48.0586 27.5252 47.8966 27.5575 47.7456 27.6204C47.5945 27.6833 47.4574 27.7754 47.3421 27.8915L46.4554 28.7785C45.4801 28.2128 44.4333 27.7805 43.3432 27.4932V26.247C43.3441 26.083 43.3124 25.9204 43.2501 25.7687C43.1878 25.617 43.096 25.4792 42.9801 25.3632C42.8642 25.2472 42.7264 25.1554 42.5748 25.0931C42.4232 25.0307 42.2607 24.9991 42.0968 25H37.8827C37.7188 24.9991 37.5563 25.0307 37.4046 25.0931C37.253 25.1554 37.1153 25.2472 36.9993 25.3632C36.8834 25.4792 36.7916 25.617 36.7293 25.7687C36.667 25.9204 36.6354 26.083 36.6363 26.247V27.4939C35.5477 27.7893 34.5023 28.2258 33.5268 28.7923L32.6401 27.9052C32.4038 27.6726 32.085 27.5432 31.7535 27.5453C31.4224 27.5457 31.1045 27.6747 30.8668 27.9052L27.8861 30.8872C27.7701 31.0026 27.678 31.1397 27.6152 31.2909C27.5523 31.442 27.52 31.604 27.52 31.7677C27.52 31.9314 27.5523 32.0934 27.6152 32.2446C27.678 32.3957 27.7701 32.5329 27.8861 32.6483L28.7728 33.5353C28.2075 34.5102 27.7754 35.5564 27.488 36.6461H26.2464C26.0825 36.6452 25.92 36.6769 25.7684 36.7392C25.6167 36.8016 25.479 36.8934 25.3631 37.0093C25.2471 37.1253 25.1554 37.2631 25.093 37.4148C25.0307 37.5665 24.9991 37.7291 25 37.8931V42.109C24.9997 42.2726 25.0318 42.4346 25.0944 42.5858C25.157 42.7369 25.2489 42.8741 25.3648 42.9896C25.4806 43.1051 25.6182 43.1965 25.7695 43.2585C25.9208 43.3205 26.0829 43.352 26.2464 43.3511H27.4928C27.7904 44.4394 28.2266 45.4849 28.7906 46.462L27.9039 47.349C27.7879 47.4644 27.6958 47.6016 27.633 47.7527C27.5701 47.9038 27.5378 48.0659 27.5378 48.2295C27.5378 48.3932 27.5701 48.5553 27.633 48.7064C27.6958 48.8575 27.7879 48.9947 27.9039 49.1101L30.8846 52.092C31.121 52.3245 31.4398 52.4539 31.7713 52.4519C32.1023 52.4515 32.4202 52.3225 32.658 52.092L33.5446 51.2077C34.5212 51.772 35.5663 52.2083 36.6541 52.5061V53.753C36.6532 53.917 36.6848 54.0796 36.7471 54.2313C36.8095 54.383 36.9012 54.5208 37.0171 54.6368C37.1331 54.7528 37.2708 54.8446 37.4225 54.9069C37.5741 54.9693 37.7366 55.0009 37.9005 55H42.1098C42.2737 55.0009 42.4362 54.9693 42.5878 54.9069C42.7394 54.8446 42.8772 54.7528 42.9931 54.6368C43.1091 54.5208 43.2008 54.383 43.2631 54.2313C43.3255 54.0796 43.3571 53.917 43.3562 53.753V52.5061C44.4416 52.2072 45.486 51.7755 46.4657 51.2208L47.3523 52.1078C47.4677 52.2239 47.6048 52.316 47.7558 52.3789C47.9069 52.4418 48.0689 52.4741 48.2325 52.4741C48.3961 52.4741 48.5581 52.4418 48.7091 52.3789C48.8602 52.316 48.9973 52.2239 49.1126 52.1078L52.0933 49.1258C52.327 48.8899 52.4576 48.5709 52.4565 48.2388C52.4561 47.9076 52.3271 47.5896 52.0967 47.3517L51.2094 46.4654C51.7737 45.4872 52.2098 44.4406 52.5072 43.3511H53.7536C53.9175 43.352 54.08 43.3204 54.2316 43.258C54.3833 43.1957 54.521 43.1039 54.6369 42.9879C54.7529 42.8719 54.8446 42.7341 54.907 42.5824C54.9693 42.4307 55.0009 42.2682 55 42.1042V37.8883C54.9957 37.557 54.861 37.2408 54.6253 37.0082C54.3896 36.7756 54.0717 36.6453 53.7406 36.6455ZM52.4942 40.8613H51.4924C51.2006 40.8618 50.9183 40.9652 50.6951 41.1532C50.4719 41.3413 50.3221 41.602 50.272 41.8896C50.0049 43.3434 49.4312 44.7236 48.5891 45.9382C48.422 46.1782 48.3445 46.4694 48.3703 46.7608C48.3961 47.0522 48.5235 47.3252 48.7303 47.532L49.4367 48.2388L48.2164 49.4597L47.5092 48.7529C47.3025 48.5461 47.0296 48.4186 46.7383 48.3928C46.4471 48.367 46.156 48.4445 45.9161 48.6117C44.6991 49.4488 43.3207 50.0223 41.8693 50.2953C41.5827 50.3473 41.3232 50.4977 41.1356 50.7206C40.948 50.9435 40.8439 51.2248 40.8414 51.5162V52.5191H39.1065V51.5162C39.1085 51.2236 39.006 50.9399 38.8176 50.7161C38.6292 50.4923 38.3672 50.3431 38.0787 50.2953C36.6265 50.0247 35.2476 49.451 34.0318 48.6117C33.7919 48.4445 33.5009 48.367 33.2096 48.3928C32.9183 48.4186 32.6454 48.5461 32.4387 48.7529L31.7322 49.4597L30.5119 48.2388L31.2149 47.5327C31.4217 47.3259 31.5491 47.0529 31.5749 46.7615C31.6007 46.4701 31.5232 46.1789 31.356 45.9389C30.5184 44.7219 29.9451 43.3427 29.6732 41.8903C29.6212 41.6036 29.4708 41.344 29.2481 41.1563C29.0253 40.9686 28.744 40.8645 28.4528 40.862H27.4538V39.1387H28.4562C28.7468 39.141 29.0287 39.0403 29.2521 38.8545C29.4755 38.6686 29.6259 38.4096 29.6766 38.1234C29.9495 36.6713 30.5227 35.2923 31.3595 34.0748C31.5267 33.8348 31.6041 33.5436 31.5783 33.2522C31.5525 32.9609 31.4251 32.6878 31.2183 32.481L30.5119 31.7742L31.7322 30.5533L32.4387 31.2601C32.6454 31.4669 32.9183 31.5944 33.2096 31.6203C33.5009 31.6461 33.7919 31.5686 34.0318 31.4013C35.2476 30.562 36.6265 29.9883 38.0787 29.7177C38.3642 29.6654 38.6224 29.5144 38.8081 29.2912C38.9938 29.0679 39.0953 28.7866 39.0948 28.4961V27.4932H40.8284V28.4961C40.8261 28.7868 40.9267 29.0689 41.1125 29.2924C41.2982 29.5159 41.5571 29.6663 41.8432 29.717C43.2947 29.99 44.6731 30.5635 45.8901 31.4006C46.13 31.5679 46.421 31.6454 46.7123 31.6196C47.0035 31.5938 47.2764 31.4663 47.4832 31.2594L48.1897 30.5526L49.41 31.7735L48.7036 32.4803C48.4968 32.6871 48.3694 32.9602 48.3436 33.2516C48.3178 33.5429 48.3952 33.8341 48.5624 34.0741C49.4035 35.2892 49.9772 36.6692 50.2453 38.1227C50.2973 38.4094 50.4476 38.669 50.6704 38.8567C50.8932 39.0444 51.1744 39.1485 51.4657 39.151H52.4681V40.8607L52.4942 40.8613Z" fill="#003268"/>
<path d="M40 32C38.4178 32 36.871 32.4692 35.5554 33.3482C34.2398 34.2273 33.2145 35.4767 32.609 36.9385C32.0035 38.4003 31.845 40.0089 32.1537 41.5607C32.4624 43.1126 33.2243 44.538 34.3431 45.6569C35.462 46.7757 36.8874 47.5376 38.4393 47.8463C39.9911 48.155 41.5997 47.9965 43.0615 47.391C44.5233 46.7855 45.7727 45.7602 46.6518 44.4446C47.5308 43.129 48 41.5822 48 40C47.9967 37.8793 47.1528 35.8463 45.6532 34.3468C44.1537 32.8472 42.1207 32.0033 40 32ZM40 45.6308C38.8863 45.6308 37.7977 45.3006 36.8717 44.6818C35.9457 44.0631 35.224 43.1837 34.7978 42.1548C34.3716 41.1259 34.2601 39.9938 34.4774 38.9015C34.6947 37.8092 35.2309 36.8059 36.0184 36.0184C36.8059 35.2309 37.8092 34.6946 38.9015 34.4774C39.9938 34.2601 41.1259 34.3716 42.1548 34.7978C43.1837 35.224 44.0631 35.9457 44.6819 36.8717C45.3006 37.7977 45.6308 38.8863 45.6308 40C45.6284 41.4926 45.0344 42.9235 43.9789 43.9789C42.9235 45.0344 41.4926 45.6284 40 45.6308Z" fill="#003268"/>
<path d="M38.1013 5.05571L39.2224 4.04457V15.7738C39.2224 16.099 39.3557 16.4109 39.5929 16.6409C39.8301 16.8708 40.1519 17 40.4874 17C40.8229 17 41.1447 16.8708 41.3819 16.6409C41.6192 16.4109 41.7525 16.099 41.7525 15.7738V4.04457L42.8735 5.05571C43.1083 5.26522 43.4154 5.38229 43.7345 5.384C43.9085 5.38553 44.0809 5.35144 44.2405 5.28395C44.4 5.21646 44.543 5.1171 44.6602 4.99235C44.7737 4.87472 44.862 4.7365 44.9202 4.58564C44.9784 4.43477 45.0052 4.27424 44.9992 4.11329C44.9931 3.95234 44.9542 3.79414 44.8848 3.6478C44.8154 3.50146 44.7169 3.36987 44.5948 3.2606L41.3477 0.328958C41.2831 0.279684 41.2131 0.237414 41.1391 0.202903C41.0814 0.16029 41.0205 0.121981 40.9569 0.0883064C40.8066 0.0335379 40.6479 0.00368502 40.4874 0C40.3271 0.00488134 40.1686 0.0346966 40.018 0.0883064C39.9501 0.121585 39.8847 0.159662 39.8226 0.202228C39.7499 0.232449 39.6837 0.275413 39.6271 0.328958L36.3801 3.26127C36.1444 3.4848 36.0081 3.78873 36.0004 4.10824C35.9926 4.42775 36.1139 4.73758 36.3384 4.97164C36.5629 5.20571 36.8729 5.34549 37.2022 5.3612C37.5315 5.3769 37.8542 5.26728 38.1013 5.05571Z" fill="#003268"/>
<path d="M4.04336 41.7617H15.7737C16.0989 41.7617 16.4109 41.6282 16.6408 41.3906C16.8708 41.1531 17 40.8308 17 40.4948C17 40.1588 16.8708 39.8365 16.6408 39.599C16.4109 39.3614 16.0989 39.2279 15.7737 39.2279H4.04336L5.0546 38.1044C5.26619 37.8569 5.37582 37.5338 5.36012 37.204C5.34441 36.8742 5.20461 36.5637 4.97052 36.3389C4.73643 36.114 4.42659 35.9926 4.10704 36.0004C3.7875 36.0082 3.48354 36.1446 3.25999 36.3806L0.325386 39.6325C0.274824 39.698 0.249206 39.7628 0.199318 39.8283C0.156904 39.8862 0.118817 39.9475 0.0853854 40.0114C-0.0284618 40.3184 -0.0284618 40.658 0.0853854 40.9649C0.115886 41.0304 0.154158 41.0917 0.199318 41.1474C0.229339 41.2201 0.272076 41.2864 0.325386 41.3431L3.25797 44.595C3.3674 44.7171 3.49905 44.8156 3.64539 44.8849C3.79173 44.9542 3.94988 44.9931 4.11077 44.9992C4.27167 45.0052 4.43214 44.9785 4.58299 44.9203C4.73385 44.8622 4.87212 44.7739 4.98988 44.6605C5.22634 44.431 5.36573 44.1145 5.37785 43.7796C5.38996 43.4447 5.27382 43.1183 5.0546 42.8712L4.04336 41.7617Z" fill="#003268"/>
<path d="M42.8937 74.9443L41.7688 75.9554V64.2262C41.7688 63.901 41.6352 63.5891 41.3973 63.3591C41.1594 63.1292 40.8368 63 40.5003 63C40.1639 63 39.8413 63.1292 39.6034 63.3591C39.3655 63.5891 39.2319 63.901 39.2319 64.2262V75.9554L38.107 74.9443C37.8592 74.7327 37.5357 74.6231 37.2055 74.6388C36.8753 74.6545 36.5644 74.7943 36.3393 75.0284C36.1142 75.2624 35.9925 75.5722 36.0004 75.8918C36.0082 76.2113 36.1448 76.5152 36.3811 76.7387L39.637 79.671C39.7026 79.7216 39.7674 79.7472 39.833 79.7978C39.891 79.8402 39.9524 79.8783 40.0164 79.9117C40.1719 79.9654 40.3352 79.9952 40.5003 80C40.6613 79.9963 40.8204 79.9665 40.9711 79.9117C41.0366 79.8812 41.098 79.8429 41.1538 79.7978C41.2291 79.765 41.2994 79.7226 41.363 79.6717L44.6189 76.7394C44.8552 76.5159 44.9918 76.2119 44.9996 75.8924C45.0075 75.5729 44.8858 75.2631 44.6607 75.029C44.4356 74.795 44.1247 74.6552 43.7945 74.6395C43.4643 74.6238 43.1408 74.7334 42.893 74.945L42.8937 74.9443Z" fill="#003268"/>
<path d="M79.9139 40.0175C79.8804 39.9539 79.8423 39.893 79.7999 39.8354C79.7672 39.7603 79.7248 39.6901 79.6739 39.6267L76.7411 36.38C76.5175 36.1444 76.2135 36.0081 75.8939 36.0004C75.5744 35.9926 75.2645 36.1139 75.0304 36.3383C74.7963 36.5628 74.6565 36.8728 74.6408 37.2021C74.6251 37.5314 74.7347 37.854 74.9463 38.1011L75.9576 39.2227H64.2264C63.9011 39.2227 63.5892 39.356 63.3592 39.5932C63.1292 39.8304 63 40.1522 63 40.4876C63 40.8231 63.1292 41.1448 63.3592 41.382C63.5892 41.6193 63.9011 41.7525 64.2264 41.7525H75.9576L74.9463 42.8742C74.8363 42.9955 74.7506 43.1381 74.6942 43.2937C74.6378 43.4494 74.6118 43.615 74.6177 43.781C74.6236 43.947 74.6612 44.1102 74.7285 44.2612C74.7958 44.4121 74.8913 44.5479 75.0097 44.6606C75.2373 44.8769 75.5349 44.9979 75.8444 44.9999C76.0131 45.0015 76.1802 44.9664 76.3349 44.8967C76.4895 44.8271 76.6281 44.7246 76.7417 44.5959L79.6745 41.3492C79.7251 41.2838 79.7507 41.2192 79.8006 41.1538C79.843 41.0961 79.8811 41.0352 79.9146 40.9716C80.0287 40.6644 80.0285 40.3245 79.9139 40.0175Z" fill="#003268"/>
<path d="M58.1926 20.8907C58.2021 20.9604 58.2192 21.0288 58.2437 21.0948C58.366 21.389 58.6 21.6228 58.8946 21.745C58.9586 21.7708 59.0348 21.7708 59.0988 21.796C59.1738 21.819 59.2506 21.8361 59.3283 21.847L63.6686 22H63.7067C64.0298 21.9983 64.3394 21.8706 64.5696 21.6441C64.7997 21.4177 64.9323 21.1104 64.9389 20.7877C64.9456 20.4651 64.8259 20.1526 64.6052 19.9168C64.3846 19.6811 64.0805 19.5407 63.7578 19.5257L62.264 19.4747L70.6383 11.1092C70.8702 10.8773 71.0003 10.5628 71 10.235C70.9997 9.9072 70.8691 9.59293 70.6369 9.36132C70.4047 9.12972 70.0899 8.99975 69.7618 9C69.4336 9.00026 69.119 9.13072 68.8872 9.36268L60.5129 17.7282L60.4619 16.2237C60.4588 16.0614 60.4231 15.9013 60.3569 15.753C60.2907 15.6047 60.1954 15.4712 60.0766 15.3604C59.9578 15.2496 59.8179 15.1637 59.6653 15.1079C59.5127 15.0521 59.3504 15.0275 59.188 15.0356C58.8617 15.0487 58.5538 15.1901 58.3314 15.4289C58.109 15.6678 57.9901 15.9848 58.0006 16.3108L58.1538 20.6466C58.1467 20.7292 58.1598 20.8123 58.192 20.8887L58.1926 20.8907Z" fill="#003268"/>
<path d="M17.718 19.4772L16.2274 19.5282C16.0658 19.5335 15.9068 19.5707 15.7597 19.6378C15.6125 19.7048 15.4801 19.8002 15.37 19.9186C15.2598 20.037 15.1742 20.1761 15.118 20.3277C15.0618 20.4793 15.0362 20.6405 15.0425 20.8021C15.0549 21.1224 15.1903 21.4256 15.4204 21.6487C15.6506 21.8718 15.9579 21.9976 16.2784 22H16.3293L20.6604 21.8471C20.7382 21.8362 20.815 21.8192 20.8901 21.7962C21.0824 21.7676 21.2634 21.6874 21.4137 21.564C21.564 21.4406 21.6779 21.2788 21.7434 21.0956C21.7678 21.0254 21.7849 20.9527 21.7943 20.8789C21.8187 20.8042 21.8358 20.7273 21.8453 20.6493L21.9982 16.3177C22.0071 16.1545 21.9834 15.991 21.9285 15.837C21.8736 15.683 21.7885 15.5415 21.6783 15.4207C21.5681 15.2999 21.4349 15.2024 21.2865 15.1337C21.1381 15.065 20.9775 15.0265 20.8141 15.0206C20.6507 15.0147 20.4878 15.0414 20.3348 15.0992C20.1819 15.157 20.042 15.2447 19.9233 15.3572C19.8046 15.4696 19.7095 15.6047 19.6436 15.7543C19.5777 15.904 19.5423 16.0652 19.5394 16.2287L19.4885 17.7195L11.1068 9.36151C10.9922 9.2469 10.8562 9.15598 10.7064 9.09395C10.5567 9.03193 10.3962 9 10.2342 9C10.0721 9 9.9116 9.03193 9.76186 9.09395C9.61213 9.15598 9.47608 9.2469 9.36148 9.36151C9.24687 9.47612 9.15597 9.61218 9.09394 9.76193C9.03192 9.91168 9 10.0722 9 10.2343C9 10.3964 9.03192 10.5568 9.09394 10.7066C9.15597 10.8563 9.24687 10.9924 9.36148 11.107L17.718 19.4772Z" fill="#003268"/>
<path d="M21.795 60.1246C21.7841 60.051 21.767 59.9784 21.744 59.9076C21.6218 59.6132 21.388 59.3792 21.0937 59.257C21.0233 59.2326 20.9506 59.2155 20.8767 59.206C20.8063 59.1815 20.7336 59.1644 20.6597 59.155L16.3234 59.0019C16.1599 58.9929 15.9963 59.0166 15.8421 59.0716C15.6879 59.1266 15.5462 59.2118 15.4253 59.3222C15.3044 59.4326 15.2067 59.566 15.138 59.7146C15.0692 59.8633 15.0307 60.0241 15.0248 60.1877C15.0189 60.3514 15.0456 60.5146 15.1035 60.6678C15.1613 60.821 15.2491 60.9611 15.3617 61.08C15.4743 61.1989 15.6095 61.2941 15.7593 61.3601C15.9091 61.4261 16.0706 61.4616 16.2343 61.4645L17.7266 61.5155L9.36003 69.8853C9.1283 70.1188 8.9988 70.4348 9.00001 70.7639C9.00122 71.0929 9.13305 71.408 9.36649 71.6398C9.59993 71.8717 9.91587 72.0012 10.2448 72C10.5737 71.9988 10.8887 71.8669 11.1204 71.6334L19.487 63.2636L19.538 64.7566C19.5506 65.0771 19.6861 65.3805 19.9164 65.6038C20.1466 65.827 20.454 65.953 20.7747 65.9555H20.8128C20.9746 65.9502 21.1337 65.9129 21.281 65.8458C21.4284 65.7787 21.561 65.6831 21.6712 65.5645C21.7815 65.4459 21.8672 65.3067 21.9235 65.1548C21.9797 65.003 22.0054 64.8415 21.999 64.6797L21.8487 60.341C21.8439 60.2663 21.8267 60.1929 21.7977 60.1239L21.795 60.1246Z" fill="#003268"/>
<path d="M63.2691 60.515L64.7599 60.464C65.0856 60.4509 65.3928 60.3094 65.6148 60.0704C65.8368 59.8314 65.9554 59.5142 65.9449 59.188C65.9401 59.0259 65.9031 58.8664 65.8362 58.7187C65.7693 58.5711 65.6738 58.4382 65.5552 58.3278C65.4366 58.2174 65.2973 58.1317 65.1454 58.0756C64.9935 58.0195 64.832 57.9942 64.6702 58.0011L60.3385 58.1542C60.2608 58.1651 60.184 58.1822 60.1089 58.2053C60.0353 58.2162 59.9628 58.2333 59.8921 58.2563C59.709 58.3219 59.5471 58.436 59.4237 58.5866C59.3003 58.7371 59.2201 58.9184 59.1916 59.1111C59.1916 59.188 59.1535 59.2642 59.1535 59.3404L59.0006 63.6789C58.9902 64.0051 59.1088 64.3223 59.3308 64.5613C59.5527 64.8003 59.86 64.9418 60.1857 64.9549H60.2373C60.5584 64.9547 60.8668 64.8295 61.0975 64.6058C61.3281 64.382 61.4629 64.0772 61.4733 63.7558L61.5242 62.2627L69.8819 70.6333C69.9965 70.749 70.1327 70.8409 70.2828 70.9038C70.4329 70.9667 70.5939 70.9994 70.7565 71C70.9192 71.0006 71.0805 70.9691 71.231 70.9073C71.3815 70.8455 71.5184 70.7546 71.6339 70.6398C71.7494 70.525 71.8411 70.3886 71.9039 70.2382C71.9668 70.0879 71.9994 69.9267 72 69.7638C72.0006 69.6008 71.9691 69.4393 71.9074 69.2886C71.8457 69.1378 71.755 69.0007 71.6404 68.885L63.2691 60.515Z" fill="#003268"/>
<path d="M40 20C36.0444 20 32.1776 21.173 28.8886 23.3706C25.5996 25.5682 23.0362 28.6918 21.5224 32.3463C20.0087 36.0008 19.6126 40.0222 20.3843 43.9018C21.156 47.7814 23.0608 51.3451 25.8579 54.1421C28.6549 56.9392 32.2186 58.844 36.0982 59.6157C39.9778 60.3874 43.9991 59.9913 47.6537 58.4776C51.3082 56.9638 54.4318 54.4004 56.6294 51.1114C58.827 47.8224 60 43.9556 60 40C59.9935 34.6977 57.8843 29.6144 54.135 25.865C50.3856 22.1157 45.3023 20.0065 40 20ZM40 57.5859C36.5218 57.5859 33.1218 56.5545 30.2298 54.6221C27.3378 52.6898 25.0838 49.9432 23.7528 46.7298C22.4217 43.5164 22.0735 39.9805 22.752 36.5692C23.4306 33.1578 25.1055 30.0243 27.5649 27.5649C30.0243 25.1055 33.1578 23.4306 36.5692 22.752C39.9805 22.0735 43.5164 22.4217 46.7298 23.7528C49.9432 25.0838 52.6898 27.3378 54.6221 30.2298C56.5545 33.1218 57.5859 36.5218 57.5859 40C57.5801 44.6623 55.7254 49.1319 52.4287 52.4287C49.132 55.7254 44.6623 57.5801 40 57.5859Z" fill="#003268"/>
<defs>
<linearGradient id="paint0_linear_1_1196" x1="4.38755" y1="-0.522742" x2="58.3594" y2="86.3929" gradientUnits="userSpaceOnUse">
<stop stop-color="#3D56E4"/>
<stop offset="1" stop-color="#3D56E4" stop-opacity="0"/>
</linearGradient>
</defs>
</svg>
