<svg width="1920" height="950" viewBox="0 0 1920 950" fill="none" xmlns="http://www.w3.org/2000/svg">
<path d="M0 728.41V715.435L908.621 557.467L910.563 569.245L0 728.41Z" fill="#79B7AF"/>
<path d="M2884.3 -525H2869.87L1251.69 435.397L2590.83 -525H2579.35L1257.44 423.043L2344.95 -525H2335.78L1263.6 409.68L2136.73 -525H2129.41L1269.75 395.244L1958.82 -525H1952.96L1275.47 379.674L1805.62 -525H1800.96L1280.56 363.048L1672.98 -525H1669.33L1284.76 345.458L1557.59 -525H1554.79L1287.73 327.044L1456.6 -525H1454.55L1289.44 308.087L1367.95 -525H1366.62L1287.85 310.651C1287.21 317.488 1286.22 324.287 1284.88 331.022L1284.29 333.974C1282.88 341.143 1281.07 348.229 1278.89 355.2L1278.53 356.35C1276.26 363.591 1273.58 370.698 1270.51 377.639V377.794C1267.39 384.833 1263.88 391.691 1259.99 398.336C1256.14 404.905 1251.92 411.249 1247.36 417.34L1246.92 417.931C1242.52 423.807 1237.81 429.441 1232.8 434.806L1231.24 436.36C1226.51 441.413 1221.54 446.225 1216.33 450.78L1213.02 453.655C1208.18 457.866 1203.15 461.859 1197.94 465.589L1192.24 469.676C1187.49 473.084 1182.6 476.28 1177.57 479.263L1169.04 484.329C1164.5 487.022 1159.84 489.534 1155.06 491.865L1143.37 497.63C1139.11 499.702 1134.79 501.639 1130.41 503.442L1115.46 509.548C1111.55 511.102 1107.57 512.656 1103.56 513.977L1085.26 520.193C1081.68 521.405 1078.06 522.508 1074.38 523.518L1047.85 530.821L1013.67 538.435L908.578 556.724L910.583 568.596L1032.67 546.748L2829.76 230.221V218.66L1250.37 496.806L2829.74 145.394V134.424L1244.5 487.157L2829.74 50.4052V39.9941L1241.67 477.523L2829.74 -57.124V-67.5506L1241.36 467.733L2829.74 -180.378V-189.702L1243.22 457.617L2829.74 -323.461V-332.427L1246.83 446.849L2884.3 -525Z" fill="url(#paint0_linear_1_24)"/>
<path d="M1259.07 507L0 727.761V1126.58L1259.07 1125.95V507Z" fill="url(#paint1_linear_1_24)"/>
<defs>
<linearGradient id="paint0_linear_1_24" x1="1891.16" y1="420.837" x2="1891.16" y2="-48.4462" gradientUnits="userSpaceOnUse">
<stop stop-color="#79B7AF"/>
<stop offset="1" stop-color="#79B7AF" stop-opacity="0"/>
</linearGradient>
<linearGradient id="paint1_linear_1_24" x1="1314.92" y1="937.645" x2="-25.9033" y2="701.221" gradientUnits="userSpaceOnUse">
<stop offset="0.15" stop-color="#475E9C" stop-opacity="0"/>
<stop offset="0.45" stop-color="#475E9C"/>
<stop offset="0.9" stop-color="#79B7AF"/>
</linearGradient>
</defs>
</svg>
