<svg width="528" height="136" viewBox="0 0 528 136" fill="none" xmlns="http://www.w3.org/2000/svg">
<g clip-path="url(#clip0_1050_7014)">
<path d="M196.57 0H0V135.75H196.57V0Z" fill="#00A2E0"/>
<path d="M527.25 0H196.57V135.75H527.25V0Z" fill="#003471"/>
<path d="M45.32 104.94V48.94H19.05V30.49H90.84V48.89H64.4701V104.94H45.32Z" fill="white"/>
<path d="M136.36 65.48H177.52V104.94H166.88L163.88 96.22C158.67 101.54 149.2 106.64 136.44 106.64C111.37 106.64 94 89.2 94 67.71C94 46.22 111.34 28.79 136.33 28.79C161.32 28.79 173.8 45.8 176 55.06L156.33 55.91C154.52 52.29 148.88 46.23 136.33 46.23C122.72 46.23 113.15 55.91 113.15 67.71C113.15 79.51 122.72 89.2 136.22 89.2C148.88 89.2 154.84 83.67 156.86 79.41H136.36V65.48Z" fill="white"/>
<path d="M215.63 104.94V30.49H246.63C272.63 30.49 288.63 46.87 288.63 67.71C288.63 88.55 272.63 104.94 246.63 104.94H215.63ZM234.77 87.39H246.58C260.83 87.39 269.33 79.2 269.33 67.71C269.33 56.22 260.83 48 246.58 48H234.77V87.39Z" fill="white"/>
<path d="M300.39 104.94V50.7H313.68L316.23 56H316.77C319.32 53.12 323.77 49 333.46 49C335.918 48.9094 338.372 49.2687 340.7 50.06V68.14C338.177 67.4056 335.558 67.0484 332.93 67.08C322.93 67.08 318.25 71.44 318.25 81.01V104.94H300.39Z" fill="white"/>
<path d="M349.31 35.49C349.31 30.49 353.45 26.02 359.52 26.02C365.59 26.02 369.83 30.49 369.83 35.49C369.83 40.49 365.58 45 359.52 45C353.46 45 349.31 40.49 349.31 35.49ZM350.58 104.94V50.7H368.45V104.94H350.58Z" fill="white"/>
<path d="M424.92 50.7H443.22L419.07 104.94H400.89L376.53 50.7H395.46L410.25 85.79L424.92 50.7Z" fill="white"/>
<path d="M509.15 83.24H462.89C465.12 88.88 470.97 92.07 478.31 92.07C484.9 92.07 488.2 90.16 490.01 88.56L508.09 89.3C504.47 97.71 494.48 106.64 478.2 106.64C458.53 106.64 445.13 93.56 445.13 77.82C445.13 62.08 458.53 49 478 49C495.76 49 509.91 61.55 509.91 77.29C509.988 79.3017 509.731 81.3124 509.15 83.24ZM462.78 72.5H492.56C490.65 66.86 484.69 63.5 477.99 63.5C470.76 63.46 464.91 66.65 462.78 72.5Z" fill="white"/>
</g>
<defs>
<clipPath id="clip0_1050_7014">
<rect width="527.25" height="135.75" fill="white"/>
</clipPath>
</defs>
</svg>
