<svg width="68" height="68" viewBox="0 0 68 68" fill="none" xmlns="http://www.w3.org/2000/svg">
<path d="M17.3 12.5C17.3 8.91015 20.2101 6 23.8 6C27.3899 6 30.3 8.91015 30.3 12.5V16.4H32.9C36.5343 16.4 38.3515 16.4 39.7849 16.9937C41.6962 17.7854 43.2146 19.3038 44.0063 21.2151C44.6 22.6485 44.6 24.4657 44.6 28.1H48.5C52.0899 28.1 55 31.0101 55 34.6C55 38.1898 52.0899 41.1 48.5 41.1H44.6V45.52C44.6 49.8884 44.6 52.0726 43.7498 53.7411C43.002 55.2088 41.8088 56.402 40.3411 57.1498C38.6726 58 36.4884 58 32.12 58H30.3V53.45C30.3 50.2191 27.6809 47.6 24.45 47.6C21.2191 47.6 18.6 50.2191 18.6 53.45V58H15.48C11.1116 58 8.92739 58 7.25887 57.1498C5.79121 56.402 4.59796 55.2088 3.85015 53.7411C3 52.0726 3 49.8884 3 45.52V41.1H6.9C10.4899 41.1 13.4 38.1898 13.4 34.6C13.4 31.0101 10.4899 28.1 6.9 28.1H3C3 24.4657 3 22.6485 3.59374 21.2151C4.38539 19.3038 5.90385 17.7854 7.81507 16.9937C9.24848 16.4 11.0657 16.4 14.7 16.4H17.3V12.5Z" fill="url(#paint0_linear_1_2285)"/>
<path d="M26.3 15.5C26.3 11.9101 29.2101 9 32.8 9C36.3898 9 39.3 11.9101 39.3 15.5V19.4H41.9C45.5343 19.4 47.3515 19.4 48.7849 19.9937C50.6961 20.7854 52.2146 22.3038 53.0063 24.2151C53.6 25.6485 53.6 27.4657 53.6 31.1H57.5C61.0898 31.1 64 34.0101 64 37.6C64 41.1898 61.0898 44.1 57.5 44.1H53.6V48.52C53.6 52.8884 53.6 55.0726 52.7498 56.7411C52.002 58.2088 50.8088 59.402 49.3411 60.1498C47.6726 61 45.4884 61 41.12 61H39.3V56.45C39.3 53.2191 36.6809 50.6 33.45 50.6C30.2191 50.6 27.6 53.2191 27.6 56.45V61H24.48C20.1116 61 17.9274 61 16.2589 60.1498C14.7912 59.402 13.598 58.2088 12.8501 56.7411C12 55.0726 12 52.8884 12 48.52V44.1H15.9C19.4899 44.1 22.4 41.1898 22.4 37.6C22.4 34.0101 19.4899 31.1 15.9 31.1H12C12 27.4657 12 25.6485 12.5937 24.2151C13.3854 22.3038 14.9039 20.7854 16.8151 19.9937C18.2485 19.4 20.0657 19.4 23.7 19.4H26.3V15.5Z" stroke="#003268" stroke-width="2" stroke-linecap="round" stroke-linejoin="round"/>
<defs>
<linearGradient id="paint0_linear_1_2285" x1="15.5" y1="12" x2="38" y2="59" gradientUnits="userSpaceOnUse">
<stop stop-color="#3D56E4"/>
<stop offset="1" stop-color="#3D56E4" stop-opacity="0"/>
</linearGradient>
</defs>
</svg>
