<svg width="68" height="68" viewBox="0 0 68 68" fill="none" xmlns="http://www.w3.org/2000/svg">
<path d="M48.3273 39.7273C48.0066 40.4539 47.9109 41.2599 48.0526 42.0414C48.1943 42.8229 48.5669 43.544 49.1223 44.1118L49.2668 44.2564C49.7148 44.7038 50.0702 45.2352 50.3127 45.8202C50.5551 46.4051 50.6799 47.032 50.6799 47.6652C50.6799 48.2984 50.5551 48.9254 50.3127 49.5103C50.0702 50.0952 49.7148 50.6266 49.2668 51.0741C48.8193 51.5221 48.288 51.8775 47.703 52.1199C47.1181 52.3624 46.4911 52.4872 45.858 52.4872C45.2248 52.4872 44.5978 52.3624 44.0129 52.1199C43.428 51.8775 42.8966 51.5221 42.4491 51.0741L42.3045 50.9296C41.7368 50.3742 41.0156 50.0016 40.2341 49.8599C39.4526 49.7182 38.6466 49.8139 37.92 50.1345C37.2075 50.4399 36.5998 50.947 36.1717 51.5933C35.7437 52.2397 35.514 52.9971 35.5109 53.7723V54.1818C35.5109 55.4597 35.0033 56.6852 34.0997 57.5888C33.1961 58.4924 31.9706 59 30.6927 59C29.4149 59 28.1893 58.4924 27.2858 57.5888C26.3822 56.6852 25.8745 55.4597 25.8745 54.1818V53.965C25.8559 53.1676 25.5978 52.3943 25.1338 51.7455C24.6698 51.0968 24.0213 50.6026 23.2727 50.3273C22.5461 50.0066 21.7401 49.9109 20.9586 50.0526C20.1771 50.1943 19.456 50.5669 18.8882 51.1223L18.7436 51.2668C18.2962 51.7148 17.7648 52.0702 17.1798 52.3127C16.5949 52.5551 15.968 52.6799 15.3348 52.6799C14.7016 52.6799 14.0746 52.5551 13.4897 52.3127C12.9048 52.0702 12.3734 51.7148 11.9259 51.2668C11.4779 50.8193 11.1225 50.288 10.8801 49.703C10.6376 49.1181 10.5128 48.4911 10.5128 47.858C10.5128 47.2248 10.6376 46.5978 10.8801 46.0129C11.1225 45.428 11.4779 44.8966 11.9259 44.4491L12.0705 44.3045C12.6258 43.7368 12.9984 43.0156 13.1401 42.2341C13.2818 41.4526 13.1861 40.6466 12.8655 39.92C12.5601 39.2075 12.053 38.5998 11.4067 38.1717C10.7603 37.7437 10.0029 37.514 9.22773 37.5109H8.81818C7.54032 37.5109 6.3148 37.0033 5.41121 36.0997C4.50763 35.1961 4 33.9706 4 32.6927C4 31.4149 4.50763 30.1893 5.41121 29.2858C6.3148 28.3822 7.54032 27.8745 8.81818 27.8745H9.035C9.8324 27.8559 10.6057 27.5978 11.2545 27.1338C11.9032 26.6698 12.3974 26.0213 12.6727 25.2727C12.9934 24.5461 13.0891 23.7401 12.9474 22.9586C12.8057 22.1771 12.4331 21.456 11.8777 20.8882L11.7332 20.7436C11.2852 20.2962 10.9298 19.7648 10.6873 19.1798C10.4449 18.5949 10.3201 17.968 10.3201 17.3348C10.3201 16.7016 10.4449 16.0746 10.6873 15.4897C10.9298 14.9048 11.2852 14.3734 11.7332 13.9259C12.1807 13.4779 12.7121 13.1225 13.297 12.8801C13.8819 12.6376 14.5089 12.5128 15.142 12.5128C15.7752 12.5128 16.4022 12.6376 16.9871 12.8801C17.572 13.1225 18.1034 13.4779 18.5509 13.9259L18.6955 14.0705C19.2632 14.6258 19.9844 14.9984 20.7659 15.1401C21.5474 15.2818 22.3534 15.1861 23.08 14.8655H23.2727C23.9853 14.5601 24.593 14.053 25.021 13.4067C25.449 12.7603 25.6787 12.0029 25.6818 11.2277V10.8182C25.6818 9.54032 26.1894 8.3148 27.093 7.41121C27.9966 6.50763 29.2221 6 30.5 6C31.7779 6 33.0034 6.50763 33.907 7.41121C34.8106 8.3148 35.3182 9.54032 35.3182 10.8182V11.035C35.3213 11.8102 35.551 12.5676 35.979 13.2139C36.4071 13.8603 37.0147 14.3673 37.7273 14.6727C38.4539 14.9934 39.2599 15.0891 40.0414 14.9474C40.8229 14.8057 41.544 14.4331 42.1118 13.8777L42.2564 13.7332C42.7038 13.2852 43.2352 12.9298 43.8202 12.6873C44.4051 12.4449 45.032 12.3201 45.6652 12.3201C46.2984 12.3201 46.9254 12.4449 47.5103 12.6873C48.0952 12.9298 48.6266 13.2852 49.0741 13.7332C49.5221 14.1807 49.8775 14.7121 50.1199 15.297C50.3624 15.8819 50.4872 16.5089 50.4872 17.142C50.4872 17.7752 50.3624 18.4022 50.1199 18.9871C49.8775 19.572 49.5221 20.1034 49.0741 20.5509L48.9296 20.6955C48.3742 21.2632 48.0016 21.9844 47.8599 22.7659C47.7182 23.5474 47.8139 24.3534 48.1345 25.08V25.2727C48.4399 25.9853 48.947 26.593 49.5933 27.021C50.2397 27.449 50.9971 27.6787 51.7723 27.6818H52.1818C53.4597 27.6818 54.6852 28.1894 55.5888 29.093C56.4924 29.9966 57 31.2221 57 32.5C57 33.7779 56.4924 35.0034 55.5888 35.907C54.6852 36.8106 53.4597 37.3182 52.1818 37.3182H51.965C51.1898 37.3213 50.4324 37.551 49.7861 37.979C49.1397 38.4071 48.6327 39.0147 48.3273 39.7273Z" fill="url(#paint0_linear_1_2300)"/>
<path d="M36.5 43.45C40.8907 43.45 44.45 39.8907 44.45 35.5C44.45 31.1093 40.8907 27.55 36.5 27.55C32.1093 27.55 28.55 31.1093 28.55 35.5C28.55 39.8907 32.1093 43.45 36.5 43.45Z" stroke="#003268" stroke-width="2" stroke-linecap="round" stroke-linejoin="round"/>
<path d="M54.3273 42.7273C54.0066 43.4539 53.9109 44.2599 54.0526 45.0414C54.1943 45.8229 54.5669 46.544 55.1223 47.1118L55.2668 47.2564C55.7148 47.7038 56.0702 48.2352 56.3127 48.8202C56.5551 49.4051 56.6799 50.032 56.6799 50.6652C56.6799 51.2984 56.5551 51.9254 56.3127 52.5103C56.0702 53.0952 55.7148 53.6266 55.2668 54.0741C54.8193 54.5221 54.288 54.8775 53.703 55.1199C53.1181 55.3624 52.4911 55.4872 51.858 55.4872C51.2248 55.4872 50.5978 55.3624 50.0129 55.1199C49.428 54.8775 48.8966 54.5221 48.4491 54.0741L48.3045 53.9295C47.7368 53.3742 47.0156 53.0016 46.2341 52.8599C45.4526 52.7182 44.6466 52.8139 43.92 53.1345C43.2075 53.4399 42.5998 53.947 42.1717 54.5933C41.7437 55.2397 41.514 55.9971 41.5109 56.7723V57.1818C41.5109 58.4597 41.0033 59.6852 40.0997 60.5888C39.1961 61.4924 37.9706 62 36.6927 62C35.4149 62 34.1893 61.4924 33.2858 60.5888C32.3822 59.6852 31.8745 58.4597 31.8745 57.1818V56.965C31.8559 56.1676 31.5978 55.3943 31.1338 54.7455C30.6698 54.0968 30.0213 53.6026 29.2727 53.3273C28.5461 53.0066 27.7401 52.9109 26.9586 53.0526C26.1771 53.1943 25.456 53.5669 24.8882 54.1223L24.7436 54.2668C24.2962 54.7148 23.7648 55.0702 23.1798 55.3127C22.5949 55.5551 21.968 55.6799 21.3348 55.6799C20.7016 55.6799 20.0746 55.5551 19.4897 55.3127C18.9048 55.0702 18.3734 54.7148 17.9259 54.2668C17.4779 53.8193 17.1225 53.288 16.8801 52.703C16.6376 52.1181 16.5128 51.4911 16.5128 50.858C16.5128 50.2248 16.6376 49.5978 16.8801 49.0129C17.1225 48.428 17.4779 47.8966 17.9259 47.4491L18.0705 47.3045C18.6258 46.7368 18.9984 46.0156 19.1401 45.2341C19.2818 44.4526 19.1861 43.6466 18.8655 42.92C18.5601 42.2075 18.053 41.5998 17.4067 41.1717C16.7603 40.7437 16.0029 40.514 15.2277 40.5109H14.8182C13.5403 40.5109 12.3148 40.0033 11.4112 39.0997C10.5076 38.1961 10 36.9706 10 35.6927C10 34.4149 10.5076 33.1893 11.4112 32.2858C12.3148 31.3822 13.5403 30.8745 14.8182 30.8745H15.035C15.8324 30.8559 16.6057 30.5978 17.2545 30.1338C17.9032 29.6698 18.3974 29.0213 18.6727 28.2727C18.9934 27.5461 19.0891 26.7401 18.9474 25.9586C18.8057 25.1771 18.4331 24.456 17.8777 23.8882L17.7332 23.7436C17.2852 23.2962 16.9298 22.7648 16.6873 22.1798C16.4449 21.5949 16.3201 20.968 16.3201 20.3348C16.3201 19.7016 16.4449 19.0746 16.6873 18.4897C16.9298 17.9048 17.2852 17.3734 17.7332 16.9259C18.1807 16.4779 18.7121 16.1225 19.297 15.8801C19.8819 15.6376 20.5089 15.5128 21.142 15.5128C21.7752 15.5128 22.4022 15.6376 22.9871 15.8801C23.572 16.1225 24.1034 16.4779 24.5509 16.9259L24.6955 17.0705C25.2632 17.6258 25.9844 17.9984 26.7659 18.1401C27.5474 18.2818 28.3534 18.1861 29.08 17.8655H29.2727C29.9853 17.5601 30.593 17.053 31.021 16.4067C31.449 15.7603 31.6787 15.0029 31.6818 14.2277V13.8182C31.6818 12.5403 32.1894 11.3148 33.093 10.4112C33.9966 9.50763 35.2221 9 36.5 9C37.7779 9 39.0034 9.50763 39.907 10.4112C40.8106 11.3148 41.3182 12.5403 41.3182 13.8182V14.035C41.3213 14.8102 41.551 15.5676 41.979 16.2139C42.4071 16.8603 43.0147 17.3673 43.7273 17.6727C44.4539 17.9934 45.2599 18.0891 46.0414 17.9474C46.8229 17.8057 47.544 17.4331 48.1118 16.8777L48.2564 16.7332C48.7038 16.2852 49.2352 15.9298 49.8202 15.6873C50.4051 15.4449 51.032 15.3201 51.6652 15.3201C52.2984 15.3201 52.9254 15.4449 53.5103 15.6873C54.0952 15.9298 54.6266 16.2852 55.0741 16.7332C55.5221 17.1807 55.8775 17.7121 56.1199 18.297C56.3624 18.8819 56.4872 19.5089 56.4872 20.142C56.4872 20.7752 56.3624 21.4022 56.1199 21.9871C55.8775 22.572 55.5221 23.1034 55.0741 23.5509L54.9295 23.6955C54.3742 24.2632 54.0016 24.9844 53.8599 25.7659C53.7182 26.5474 53.8139 27.3534 54.1345 28.08V28.2727C54.4399 28.9853 54.947 29.593 55.5933 30.021C56.2397 30.449 56.9971 30.6787 57.7723 30.6818H58.1818C59.4597 30.6818 60.6852 31.1894 61.5888 32.093C62.4924 32.9966 63 34.2221 63 35.5C63 36.7779 62.4924 38.0034 61.5888 38.907C60.6852 39.8106 59.4597 40.3182 58.1818 40.3182H57.965C57.1898 40.3213 56.4324 40.551 55.7861 40.979C55.1397 41.4071 54.6327 42.0147 54.3273 42.7273Z" stroke="#003268" stroke-width="2" stroke-linecap="round" stroke-linejoin="round"/>
<defs>
<linearGradient id="paint0_linear_1_2300" x1="19.5" y1="11.5" x2="44" y2="59" gradientUnits="userSpaceOnUse">
<stop stop-color="#3D56E4"/>
<stop offset="1" stop-color="#3D56E4" stop-opacity="0"/>
</linearGradient>
</defs>
</svg>
