<svg width="68" height="68" viewBox="0 0 68 68" fill="none" xmlns="http://www.w3.org/2000/svg">
<path d="M15.9531 39.3084V24.1904C15.9531 23.8409 15.9531 23.6662 15.9009 23.511C15.8547 23.3737 15.7792 23.2481 15.6797 23.1428C15.5672 23.0239 15.4129 22.9418 15.1043 22.7777L8 19L34.5 6L61 19L53.9015 22.7776C53.593 22.9417 53.4388 23.0238 53.3264 23.1428C53.2269 23.248 53.1515 23.3736 53.1053 23.5108C53.0531 23.666 53.0531 23.8407 53.0531 24.1901V39.3084C53.0531 40.2686 53.0531 40.7487 52.9083 41.1725C52.7802 41.5473 52.5712 41.8887 52.2963 42.172C51.9855 42.4923 51.5601 42.707 50.7093 43.1364L50.7093 43.1364L36.3993 50.3587L36.3992 50.3587C35.704 50.7096 35.3564 50.8851 34.9918 50.9541C34.6688 51.0153 34.3374 51.0153 34.0145 50.9541C33.6499 50.8851 33.3022 50.7096 32.607 50.3587L32.6069 50.3587L18.2969 43.1364C17.4461 42.707 17.0207 42.4923 16.7099 42.172C16.4351 41.8887 16.226 41.5473 16.098 41.1725C15.9531 40.7487 15.9531 40.2686 15.9531 39.3084Z" fill="url(#paint0_linear_1_1186)"/>
<path d="M21.95 32.2291V48.3084C21.95 49.2686 21.95 49.7487 22.0948 50.1725C22.2229 50.5474 22.4319 50.8888 22.7068 51.172C23.0176 51.4923 23.443 51.707 24.2938 52.1364L38.6038 59.3587C39.2991 59.7096 39.6467 59.8851 40.0113 59.9541C40.3343 60.0153 40.6657 60.0153 40.9887 59.9541C41.3533 59.8851 41.701 59.7096 42.3962 59.3587L56.7062 52.1364C57.557 51.707 57.9824 51.4923 58.2932 51.172C58.5681 50.8888 58.7771 50.5474 58.9052 50.1725C59.05 49.7487 59.05 49.2686 59.05 48.3084V32.2291M14 28.2167L39.5519 15.3206C39.8995 15.1452 40.0734 15.0575 40.2557 15.0229C40.4171 14.9924 40.5829 14.9924 40.7443 15.0229C40.9266 15.0575 41.1005 15.1452 41.4481 15.3206L67 28.2167L41.4481 41.1128C41.1005 41.2883 40.9266 41.376 40.7443 41.4105C40.5829 41.4411 40.4171 41.4411 40.2557 41.4105C40.0734 41.376 39.8995 41.2883 39.5519 41.1128L14 28.2167Z" stroke="#003268" stroke-width="2" stroke-linecap="round" stroke-linejoin="round"/>
<defs>
<linearGradient id="paint0_linear_1_1186" x1="27.7575" y1="19.6046" x2="39.502" y2="49.0016" gradientUnits="userSpaceOnUse">
<stop stop-color="#3D56E4"/>
<stop offset="1" stop-color="#3D56E4" stop-opacity="0"/>
</linearGradient>
</defs>
</svg>
