<svg width="68" height="68" viewBox="0 0 68 68" fill="none" xmlns="http://www.w3.org/2000/svg">
<path d="M44.0001 13.1469C43.0047 12.7361 42.2142 11.9494 41.8024 10.9595L41.8028 10.9655L40.3566 7.49583C39.9439 6.50618 39.1527 5.71993 38.1568 5.30998C37.1609 4.90003 36.0419 4.89995 35.0459 5.30975L31.5541 6.74094C30.5586 7.15145 29.4398 7.15229 28.4437 6.74327L24.9558 5.30752C23.9597 4.89749 22.8405 4.89749 21.8444 5.30752C20.8484 5.71756 20.057 6.50403 19.6444 7.49393L18.1986 10.9626C17.785 11.9507 16.9937 12.7353 15.9986 13.1442L12.5107 14.58C12.0172 14.7829 11.5688 15.0805 11.1911 15.4557C10.8134 15.831 10.5138 16.2765 10.3094 16.7669C10.1051 17.2572 9.99991 17.7828 10 18.3135C10.0001 18.8443 10.1054 19.3698 10.3099 19.8601L11.7526 23.3313C12.1657 24.3206 12.1665 25.4324 11.7549 26.4224L10.3102 29.8886C9.89846 30.8783 9.89902 31.99 10.3118 32.9794C10.7245 33.9687 11.5157 34.7547 12.5113 35.1645L16.0017 36.6013C16.9971 37.0121 17.7876 37.7988 18.1994 38.7887L18.9261 40.5321L16.5 58L30 50L43.5 58L41 41L40.8796 40.9945L41.7997 38.7871C42.213 37.7978 43.0047 37.0122 44.0007 36.603L47.4886 35.1672C47.982 34.9643 48.4305 34.6667 48.8082 34.2914C49.1859 33.9162 49.4855 33.4707 49.6898 32.9803C49.8942 32.49 49.9994 31.9644 49.9993 31.4336C49.9992 30.9029 49.8939 30.3774 49.6894 29.8871L48.2471 26.4219C47.8325 25.432 47.8331 24.3187 48.2458 23.3283L49.6906 19.8621C50.1031 18.8722 50.1031 17.76 49.6906 16.7701C49.278 15.7802 48.4866 14.9937 47.4905 14.5837L44.0001 13.1469Z" fill="url(#paint0_linear_1_1256)"/>
<path d="M26.9831 45.6688L24.6667 63L36.9024 55.7044C37.3015 55.4665 37.501 55.3475 37.714 55.301C37.9024 55.2599 38.0976 55.2599 38.286 55.301C38.499 55.3475 38.6985 55.4665 39.0976 55.7044L51.3333 63L49.0184 45.6613M49.8024 15.9595C50.2142 16.9494 51.0047 17.7361 52.0001 18.1469L55.4905 19.5837C56.4866 19.9937 57.278 20.7802 57.6906 21.7701C58.1031 22.76 58.1031 23.8722 57.6906 24.8621L56.2458 28.3283C55.8331 29.3187 55.8325 30.432 56.2471 31.4219L57.6893 34.8871C57.8939 35.3774 57.9992 35.9029 57.9993 36.4336C57.9994 36.9644 57.8942 37.49 57.6899 37.9803C57.4855 38.4707 57.1859 38.9162 56.8082 39.2914C56.4305 39.6667 55.982 39.9643 55.4886 40.1672L52.0007 41.603C51.0047 42.0122 50.213 42.7978 49.7997 43.7871L48.3539 47.2557C47.9413 48.2456 47.1499 49.0321 46.1538 49.4421C45.1577 49.8522 44.0385 49.8522 43.0424 49.4421L39.5546 48.0064C38.5584 47.5974 37.4397 47.5982 36.4441 48.0087L32.9538 49.4434C31.9582 49.8525 30.84 49.8522 29.8447 49.4425C28.8495 49.0328 28.0585 48.2472 27.6456 47.2584L26.1994 43.7887C25.7876 42.7988 24.9971 42.0121 24.0017 41.6013L20.5113 40.1645C19.5157 39.7547 18.7245 38.9687 18.3118 37.9794C17.899 36.99 17.8985 35.8783 18.3102 34.8886L19.7549 31.4224C20.1665 30.4324 20.1657 29.3206 19.7526 28.3313L18.3099 24.8601C18.1054 24.3698 18.0001 23.8443 18 23.3135C17.9999 22.7828 18.1051 22.2572 18.3094 21.7669C18.5138 21.2765 18.8134 20.831 19.1911 20.4557C19.5688 20.0805 20.0172 19.7829 20.5107 19.58L23.9986 18.1442C24.9937 17.7353 25.785 16.9507 26.1986 15.9626L27.6444 12.4939C28.057 11.504 28.8484 10.7176 29.8444 10.3075C30.8405 9.89749 31.9597 9.89749 32.9558 10.3075L36.4437 11.7433C37.4398 12.1523 38.5586 12.1515 39.5541 11.7409L43.0459 10.3098C44.0419 9.89995 45.1609 9.90003 46.1568 10.31C47.1527 10.7199 47.9439 11.5062 48.3566 12.4958L49.8028 15.9655L49.8024 15.9595Z" stroke="#003268" stroke-width="2" stroke-linecap="round" stroke-linejoin="round"/>
<defs>
<linearGradient id="paint0_linear_1_1256" x1="21.5" y1="13.5" x2="38" y2="58" gradientUnits="userSpaceOnUse">
<stop stop-color="#3D56E4"/>
<stop offset="1" stop-color="#3D56E4" stop-opacity="0"/>
</linearGradient>
</defs>
</svg>
