<svg width="82" height="81" viewBox="0 0 82 81" fill="none" xmlns="http://www.w3.org/2000/svg">
<path d="M64.2851 40.5649L63.9108 41.5506H66.5763C67.5511 41.5503 68.5168 41.7423 69.4174 42.1156C70.3181 42.4889 71.1366 43.0363 71.826 43.7265C72.5154 44.4167 73.0622 45.2361 73.4353 46.138C73.8083 47.0398 74.0002 48.0063 74 48.9824V56.7751C74 57.7511 73.808 58.7176 73.4349 59.6193C73.0997 60.4293 72.6243 61.1729 72.0312 61.8159H72.8065C73.4656 61.8159 74 62.351 74 63.011V70.8049C74 71.4649 73.4656 72 72.8065 72H47.898C47.2388 72 46.7044 71.4649 46.7044 70.8049V63.011C46.7044 62.351 47.2388 61.8159 47.898 61.8159H48.6732C47.4657 60.5066 46.7679 58.8052 46.7086 57.023L26.382 56.6278L19.6443 63.3743H21.4317C22.0909 63.3743 22.6253 63.9094 22.6253 64.5694V70.8049C22.6253 71.4649 22.0909 72 21.4317 72H1.19354C0.534364 72 0 71.4649 0 70.8049V64.5694C0 63.9094 0.534364 63.3743 1.19354 63.3743H1.55787V41.1871C1.55787 38.3896 2.66771 35.7067 4.64325 33.7286C5.62144 32.7491 6.78271 31.9721 8.06077 31.4421C9.18372 30.9763 10.3775 30.7091 11.5891 30.6512V3.11743C11.5891 2.29064 11.9171 1.49771 12.5009 0.913076C13.0848 0.328444 13.8767 1.43187e-06 14.7024 1.43187e-06H61.4061C61.8152 -0.000391168 62.2203 0.0799538 62.5984 0.236444C62.9765 0.392933 63.32 0.6225 63.6095 0.912019C63.8989 1.20154 64.1285 1.54533 64.2851 1.92375C64.4417 2.30217 64.5224 2.70779 64.5224 3.11743L64.2851 40.5649Z" fill="url(#paint0_linear_1_1230)"/>
<path d="M61.2502 50.8509V43.2679C61.267 42.5133 61.0158 41.7769 60.5404 41.1875C60.0651 40.5982 59.3959 40.1934 58.6501 40.0441C58.2016 39.9682 57.7418 39.9904 57.3028 40.1092C56.8639 40.2279 56.4564 40.4402 56.1087 40.7314C55.7611 41.0226 55.4818 41.3855 55.2903 41.7949C55.0988 42.2043 54.9997 42.6502 55 43.1016V64.8001C55 66.4445 55.6585 68.0214 56.8306 69.1841C58.0028 70.3468 59.5925 71 61.2502 71H73.7475C74.5684 71.0003 75.3814 70.8402 76.14 70.5287C76.8986 70.2173 77.5879 69.7607 78.1685 69.1849C78.7492 68.6092 79.2098 67.9256 79.524 67.1733C79.8383 66.4209 80 65.6145 80 64.8001V57.052C80.0002 56.2375 79.8385 55.431 79.5244 54.6785C79.2102 53.926 78.7496 53.2423 78.169 52.6664C77.5883 52.0905 76.899 51.6338 76.1403 51.3223C75.3816 51.0108 74.5685 50.8506 73.7475 50.8509H61.2502Z" stroke="#003268" stroke-width="2.65154" stroke-linejoin="round"/>
<path d="M55 71H80V79H55V71Z" stroke="#003268" stroke-width="2.65154" stroke-linejoin="round"/>
<path d="M72 48V10.1536C72 9.73922 71.9193 9.32889 71.7624 8.94608C71.6056 8.56327 71.3757 8.21548 71.0859 7.9226C70.7961 7.62972 70.4521 7.39749 70.0736 7.23919C69.695 7.08088 69.2894 6.9996 68.8798 7H22.1173C21.2905 7 20.4976 7.33226 19.913 7.92367C19.3284 8.51509 19 9.31722 19 10.1536V41.6922" stroke="#003268" stroke-width="2.65154" stroke-linejoin="round"/>
<path d="M23.9051 73L34.7204 62C35.1262 61.5871 35.448 61.097 35.6676 60.5576C35.8872 60.0182 36.0001 59.4401 36 58.8562C35.9999 58.2724 35.8867 57.6944 35.667 57.1551C35.4472 56.6157 35.1251 56.1257 34.7192 55.713C34.3132 55.3003 33.8313 54.9729 33.301 54.7496C32.7706 54.5263 32.2022 54.4114 31.6282 54.4115C31.0542 54.4116 30.4859 54.5267 29.9556 54.7502C29.4254 54.9738 28.9436 55.3013 28.5378 55.7142L19.2701 65.1426V40C18.0527 40 16.8473 40.2439 15.7226 40.7177C14.5979 41.1915 13.5759 41.886 12.7151 42.7615C10.9767 44.5297 10 46.9278 10 49.4284V72.9994L23.9051 73Z" stroke="#003268" stroke-width="2.65154" stroke-linejoin="round"/>
<path d="M33 63H50" stroke="#003268" stroke-width="2.65154" stroke-linejoin="round"/>
<path d="M8 73H28V79H8V73Z" stroke="#003268" stroke-width="2.65154" stroke-linejoin="round"/>
<path d="M32.8 13H26.2C25.5373 13 25 13.5596 25 14.25V21.75C25 22.4404 25.5373 23 26.2 23H32.8C33.4627 23 34 22.4404 34 21.75V14.25C34 13.5596 33.4627 13 32.8 13Z" stroke="#003268" stroke-width="2.65154" stroke-linejoin="round"/>
<path d="M48.8 13H42.2C41.5373 13 41 13.5596 41 14.25V21.75C41 22.4404 41.5373 23 42.2 23H48.8C49.4627 23 50 22.4404 50 21.75V14.25C50 13.5596 49.4627 13 48.8 13Z" stroke="#003268" stroke-width="2.65154" stroke-linejoin="round"/>
<path d="M65.75 13H58.25C57.5596 13 57 13.5596 57 14.25V21.75C57 22.4404 57.5596 23 58.25 23H65.75C66.4404 23 67 22.4404 67 21.75V14.25C67 13.5596 66.4404 13 65.75 13Z" stroke="#003268" stroke-width="2.65154" stroke-linejoin="round"/>
<path d="M30.5 43C32.433 43 34 41.6569 34 40C34 38.3431 32.433 37 30.5 37C28.567 37 27 38.3431 27 40C27 41.6569 28.567 43 30.5 43Z" stroke="#003268" stroke-width="2.65154" stroke-linejoin="round"/>
<path d="M30 27V36" stroke="#003268" stroke-width="2.65154" stroke-linejoin="round"/>
<path d="M30 43V49" stroke="#003268" stroke-width="2.65154" stroke-linejoin="round"/>
<path d="M45.5 53C47.433 53 49 51.433 49 49.5C49 47.567 47.433 46 45.5 46C43.567 46 42 47.567 42 49.5C42 51.433 43.567 53 45.5 53Z" stroke="#003268" stroke-width="2.65154" stroke-linejoin="round"/>
<path d="M46 27V46" stroke="#003268" stroke-width="2.65154" stroke-linejoin="round"/>
<path d="M55 29H68" stroke="#003268" stroke-width="2.65154" stroke-linejoin="round"/>
<path d="M55 35H68" stroke="#003268" stroke-width="2.65154" stroke-linejoin="round"/>
<defs>
<linearGradient id="paint0_linear_1_1230" x1="18.7911" y1="4.50721" x2="41.8019" y2="72.0969" gradientUnits="userSpaceOnUse">
<stop stop-color="#3D56E4"/>
<stop offset="1" stop-color="#3D56E4" stop-opacity="0"/>
</linearGradient>
</defs>
</svg>
