<svg width="78" height="80" viewBox="0 0 78 80" fill="none" xmlns="http://www.w3.org/2000/svg">
<path d="M60.7274 40.1694C60.0584 42.8182 59.0068 45.3554 57.6057 47.7007L60.3365 50.4306C60.5 50.5941 60.6297 50.7881 60.7182 51.0017C60.8067 51.2153 60.8522 51.4442 60.8522 51.6754C60.8522 51.9066 60.8067 52.1355 60.7182 52.3491C60.6297 52.5627 60.5 52.7567 60.3365 52.9202L52.9194 60.3327C52.5892 60.6627 52.1415 60.848 51.6747 60.848C51.2078 60.848 50.7601 60.6627 50.4299 60.3327L47.7038 57.6065C45.3585 59.0077 42.8214 60.0594 40.1726 60.7283V64.5814C40.1726 65.0482 39.9872 65.4959 39.6571 65.8259C39.327 66.156 38.8793 66.3415 38.4125 66.3415H27.9289C27.4621 66.3415 27.0144 66.156 26.6844 65.8259C26.3543 65.4959 26.1689 65.0482 26.1689 64.5814V60.7283C23.5201 60.0594 20.983 59.0077 18.6377 57.6065L15.9144 60.3327C15.5841 60.6627 15.1364 60.848 14.6696 60.848C14.2028 60.848 13.7551 60.6627 13.4248 60.3327L6.00868 52.9164C5.67871 52.5862 5.49335 52.1385 5.49335 51.6717C5.49335 51.2048 5.67871 50.7571 6.00868 50.4269L8.7348 47.7007C7.33359 45.3554 6.28195 42.8183 5.61309 40.1694H1.76005C1.52892 40.1694 1.30005 40.1239 1.08651 40.0354C0.872969 39.947 0.678943 39.8174 0.515507 39.6539C0.352071 39.4905 0.222428 39.2964 0.133977 39.0829C0.0455264 38.8694 0 38.6405 0 38.4093V27.9284C0.000247945 27.4617 0.185791 27.0143 0.515838 26.6844C0.845885 26.3545 1.29342 26.1692 1.76005 26.1692H5.61309C6.28205 23.5204 7.33369 20.9833 8.7348 18.6379L6.00774 15.9118C5.84425 15.7483 5.71455 15.5543 5.62606 15.3407C5.53757 15.1271 5.49203 14.8982 5.49203 14.667C5.49203 14.4358 5.53757 14.2069 5.62606 13.9933C5.71455 13.7797 5.84425 13.5857 6.00774 13.4222L13.4211 6.0097C13.5845 5.8462 13.7786 5.7165 13.9922 5.62801C14.2058 5.53952 14.4347 5.49398 14.6659 5.49398C14.897 5.49398 15.126 5.53952 15.3395 5.62801C15.5531 5.7165 15.7472 5.8462 15.9106 6.0097L18.6367 8.73586C20.982 7.33471 23.5191 6.28307 26.1679 5.61411V1.76008C26.1679 1.29328 26.3534 0.845598 26.6834 0.51552C27.0135 0.185441 27.4612 2.48497e-07 27.928 2.48497e-07H38.4116C38.6428 -0.000122608 38.8718 0.0453105 39.0854 0.133708C39.2991 0.222105 39.4932 0.351736 39.6568 0.515186C39.8203 0.678637 39.95 0.872708 40.0385 1.08631C40.127 1.29991 40.1726 1.52886 40.1726 1.76008V5.61317C42.8213 6.28228 45.3584 7.33392 47.7038 8.73492L50.4299 6.00783C50.7601 5.67785 51.2078 5.49249 51.6747 5.49249C52.1415 5.49249 52.5892 5.67785 52.9194 6.00783L60.3365 13.4203C60.5 13.5838 60.6297 13.7778 60.7182 13.9914C60.8067 14.205 60.8522 14.4339 60.8522 14.6651C60.8522 14.8963 60.8067 15.1252 60.7182 15.3388C60.6297 15.5524 60.5 15.7464 60.3365 15.9099L57.6057 18.637C59.007 20.9826 60.0587 23.52 60.7274 26.1692H64.5814C65.0482 26.1692 65.4959 26.3547 65.826 26.6847C66.156 27.0148 66.3415 27.4625 66.3415 27.9293V38.4112C66.3415 38.878 66.156 39.3257 65.826 39.6558C65.4959 39.9859 65.0482 40.1713 64.5814 40.1713H60.7274V40.1694Z" fill="url(#paint0_linear_1_1212)"/>
<path d="M76.3437 63.7967C76.382 63.9443 76.3911 64.0981 76.3707 64.2493C76.3502 64.4005 76.3006 64.5461 76.2246 64.6778C76.1486 64.8095 76.0478 64.9248 75.9278 65.017C75.8079 65.1092 75.6712 65.1765 75.5255 65.2151L70.5074 66.5447C70.3495 66.5866 70.1847 66.5938 70.0239 66.5658C69.8631 66.5378 69.7101 66.4752 69.575 66.3824C69.44 66.2895 69.3261 66.1685 69.241 66.0274C69.1559 65.8863 69.1015 65.7283 69.0815 65.5642L68.4452 60.3456C68.4079 60.04 68.4919 59.732 68.6786 59.4893C68.8654 59.2465 69.1396 59.0889 69.441 59.0511C69.7424 59.0133 70.0462 59.0985 70.2857 59.2878C70.5251 59.4771 70.6806 59.7551 70.7179 60.0606L70.9819 62.2265C74.7668 55.9751 76.35 48.6077 75.4732 41.3267C74.5964 34.0457 71.3114 27.2809 66.1542 22.1361C65.9377 21.9202 65.8146 21.626 65.8121 21.3181C65.8096 21.0102 65.9278 20.7139 66.1408 20.4944C66.3538 20.2749 66.644 20.1502 66.9477 20.1476C67.2514 20.1451 67.5437 20.265 67.7602 20.4809C73.2974 26.0036 76.8204 33.2689 77.7523 41.0867C78.6842 48.9045 76.9697 56.8115 72.8896 63.5124L74.947 62.9672C75.0926 62.9285 75.2443 62.9193 75.3934 62.9401C75.5425 62.9608 75.6861 63.0111 75.816 63.0882C75.946 63.1652 76.0596 63.2674 76.1506 63.389C76.2416 63.5105 76.308 63.6491 76.3462 63.7967H76.3437ZM51.6254 15.1802C51.6254 13.7338 52.0486 12.3199 52.8413 11.1172C53.634 9.91456 54.7607 8.97724 56.0789 8.4238C57.3971 7.87035 58.8476 7.72564 60.247 8.00796C61.6463 8.29028 62.9317 8.98696 63.9404 10.0099C64.9492 11.0328 65.6361 12.336 65.9142 13.7547C66.1923 15.1734 66.0492 16.6438 65.503 17.9801C64.9567 19.3163 64.0319 20.4583 62.8453 21.2616C61.6588 22.065 60.264 22.4936 58.8372 22.4932C56.925 22.4904 55.092 21.719 53.7401 20.3481C52.3882 18.9772 51.6277 17.1187 51.6254 15.1802ZM53.9158 15.1802C53.9158 16.1675 54.2046 17.1325 54.7456 17.9533C55.2867 18.7741 56.0557 19.4138 56.9554 19.7915C57.8551 20.1692 58.8451 20.268 59.8002 20.0752C60.7552 19.8825 61.6325 19.407 62.3209 18.7088C63.0094 18.0106 63.4781 17.1211 63.6679 16.1528C63.8576 15.1845 63.7599 14.1809 63.387 13.269C63.0141 12.357 62.3827 11.5777 61.5729 11.0295C60.763 10.4813 59.811 10.1889 58.8372 10.1892C57.5318 10.1904 56.2802 10.7166 55.3572 11.6523C54.4342 12.5881 53.9151 13.8569 53.914 15.1802H53.9158ZM69.3066 73.7467C69.4735 74.0277 69.5638 74.3486 69.5681 74.6767C69.5724 75.0047 69.4906 75.328 69.3311 75.6134C69.1716 75.8988 68.9401 76.1361 68.6603 76.301C68.3805 76.4658 68.0625 76.5522 67.7389 76.5515H54.3642C54.041 76.5519 53.7235 76.4654 53.4442 76.3007C53.1648 76.136 52.9336 75.8991 52.7742 75.6142C52.6147 75.3292 52.5328 75.0065 52.5367 74.6789C52.5406 74.3513 52.6303 74.0307 52.7965 73.7497L59.628 62.192C59.7756 61.9426 59.9844 61.7361 60.2341 61.5928C60.4838 61.4494 60.7658 61.3741 61.0527 61.3741C61.3397 61.3741 61.6217 61.4494 61.8714 61.5928C62.1211 61.7361 62.3299 61.9426 62.4774 62.192L69.3066 73.7467ZM66.9219 74.2302L61.0509 64.3011L55.1799 74.2302H66.9219ZM50.6917 39.5014C50.988 39.8018 51.2231 40.1585 51.3835 40.551C51.5438 40.9435 51.6264 41.3642 51.6264 41.7891C51.6264 42.214 51.5438 42.6347 51.3835 43.0272C51.2231 43.4197 50.988 43.7764 50.6917 44.0768L43.4848 51.3823C43.1894 51.6824 42.8386 51.9206 42.4524 52.0831C42.0662 52.2457 41.6521 52.3294 41.234 52.3296C41.1403 52.3296 41.046 52.3253 40.9517 52.3172C40.493 52.2769 40.0483 52.1362 39.6483 51.905C39.2483 51.6737 38.9025 51.3574 38.6346 50.9778L35.675 47.2016C35.1676 46.5294 34.9407 45.6821 35.0432 44.842C35.1456 44.0019 35.5691 43.2361 36.2226 42.7093C36.8762 42.1825 37.7076 41.9368 38.538 42.0249C39.3685 42.113 40.1316 42.5281 40.6633 43.1807L41.4998 44.2464L46.1803 39.5014C46.7791 38.896 47.5903 38.556 48.436 38.556C49.2817 38.556 50.0929 38.896 50.6917 39.5014ZM49.3363 41.7888C49.3363 41.6082 49.2834 41.4317 49.1844 41.2815C49.0854 41.1314 48.9447 41.0143 48.7801 40.9452C48.6155 40.8761 48.4344 40.858 48.2597 40.8933C48.0849 40.9285 47.9244 41.0154 47.7984 41.1431L42.2103 46.8076C42.0963 46.9228 41.9595 47.0123 41.809 47.0703C41.6585 47.1283 41.4977 47.1535 41.3369 47.1442C41.1762 47.1348 41.0192 47.0913 40.8762 47.0163C40.7332 46.9413 40.6074 46.8365 40.507 46.7089L38.873 44.625C38.7232 44.4419 38.5085 44.3255 38.275 44.3009C38.0415 44.2764 37.8079 44.3455 37.6241 44.4936C37.4403 44.6416 37.3211 44.8568 37.292 45.0929C37.2629 45.3291 37.3262 45.5673 37.4684 45.7567L40.4492 49.5575C40.4638 49.576 40.4778 49.5951 40.4918 49.6148C40.567 49.7254 40.6655 49.8177 40.7801 49.885C40.8948 49.9523 41.0228 49.993 41.1549 50.004C41.2858 50.0165 41.4178 49.9993 41.5413 49.9537C41.6649 49.908 41.7768 49.835 41.8691 49.74L49.0723 42.4345C49.1563 42.3499 49.2228 42.2493 49.2682 42.1385C49.3135 42.0276 49.3366 41.9088 49.3363 41.7888ZM50.7209 76.8993C43.9227 78.437 36.8153 77.6869 30.4753 74.7626C24.1353 71.8384 18.9079 66.8993 15.5849 60.6934L17.5699 61.5457C17.7084 61.6051 17.8571 61.6363 18.0075 61.6375C18.1578 61.6387 18.307 61.6099 18.4464 61.5527C18.5858 61.4954 18.7127 61.4109 18.8198 61.3039C18.927 61.197 19.0123 61.0697 19.071 60.9293C19.1296 60.7889 19.1604 60.6382 19.1616 60.4857C19.1628 60.3333 19.1343 60.1821 19.0778 60.0408C19.0214 59.8995 18.938 59.7708 18.8325 59.6622C18.727 59.5535 18.6014 59.467 18.463 59.4076L13.6863 57.357C13.5361 57.2926 13.374 57.2615 13.2109 57.2657C13.0478 57.2699 12.8875 57.3094 12.7407 57.3815C12.5939 57.4536 12.464 57.5567 12.3597 57.6838C12.2553 57.8109 12.179 57.9592 12.1357 58.1186L10.7627 63.1892C10.7228 63.3363 10.7118 63.4898 10.7304 63.6412C10.749 63.7925 10.7968 63.9386 10.8711 64.0712C10.9454 64.2038 11.0448 64.3203 11.1635 64.414C11.2822 64.5077 11.4179 64.5767 11.563 64.6172C11.708 64.6577 11.8595 64.6688 12.0088 64.65C12.158 64.6311 12.3022 64.5826 12.433 64.5073C12.5638 64.432 12.6787 64.3313 12.7711 64.2109C12.8635 64.0906 12.9316 63.953 12.9716 63.8059L13.5337 61.7295C17.0854 68.3997 22.6881 73.712 29.4903 76.859C36.2925 80.0059 43.9222 80.8154 51.2197 79.1645C51.3664 79.1313 51.5053 79.0691 51.6284 78.9815C51.7514 78.8938 51.8562 78.7825 51.9368 78.6538C52.0174 78.5252 52.0723 78.3817 52.0982 78.2315C52.1241 78.0813 52.1205 77.9275 52.0878 77.7787C52.055 77.6299 51.9937 77.4892 51.9073 77.3644C51.8209 77.2397 51.711 77.1334 51.5841 77.0517C51.4572 76.97 51.3156 76.9144 51.1675 76.8881C51.0194 76.8619 50.8676 76.8661 50.7209 76.8993ZM56.3376 45.2498C56.3375 47.7793 55.5974 50.2521 54.2111 52.3553C52.8247 54.4585 50.8543 56.0977 48.549 57.0657C46.2437 58.0336 43.707 58.2868 41.2598 57.7933C38.8125 57.2997 36.5646 56.0815 34.8002 54.2928C33.0359 52.5041 31.8344 50.2251 31.3476 47.7441C30.8609 45.2631 31.1108 42.6915 32.0657 40.3545C33.0206 38.0175 34.6376 36.02 36.7123 34.6147C38.787 33.2093 41.2262 32.4592 43.7214 32.4592C47.0662 32.4631 50.273 33.8119 52.6381 36.2096C55.0033 38.6073 56.3337 41.8589 56.3376 45.2498ZM54.0472 45.2498C54.0473 43.1792 53.4418 41.1551 52.3071 39.4335C51.1725 37.7118 49.5598 36.3699 47.6728 35.5775C45.7859 34.7851 43.7096 34.5777 41.7064 34.9816C39.7032 35.3855 37.8632 36.3826 36.4189 37.8467C34.9747 39.3108 33.9912 41.1762 33.5928 43.207C33.1944 45.2377 33.3989 47.3427 34.1806 49.2556C34.9622 51.1685 36.2859 52.8035 37.9841 53.9538C39.6824 55.104 41.679 55.7179 43.7214 55.7178C46.4591 55.7145 49.0837 54.6105 51.0195 52.6479C52.9553 50.6854 54.0442 48.0252 54.0472 45.2498ZM17.4355 53.003H6.14488C5.99448 53.003 5.84555 52.973 5.70661 52.9146C5.56767 52.8563 5.44143 52.7707 5.33511 52.6629C5.22879 52.555 5.14447 52.427 5.08697 52.2861C5.02947 52.1452 4.99992 51.9942 5 51.8418V40.3963C5 40.0884 5.12062 39.7932 5.33533 39.5756C5.55003 39.3579 5.84124 39.2356 6.14488 39.2356H17.4355C17.7391 39.2356 18.0303 39.3579 18.245 39.5756C18.4597 39.7932 18.5804 40.0884 18.5804 40.3963V51.8424C18.5804 52.1502 18.4597 52.4454 18.245 52.6631C18.0303 52.8807 17.7391 53.003 17.4355 53.003ZM16.2906 41.5575H7.29036V50.6848H16.2906V41.5575ZM11.4781 37.4071C11.6231 37.4479 11.7745 37.4593 11.9239 37.4407C12.0732 37.4221 12.2174 37.3738 12.3483 37.2986C12.4792 37.2234 12.5941 37.1227 12.6866 37.0024C12.779 36.882 12.8471 36.7444 12.887 36.5973C14.7652 29.7671 18.7948 23.7467 24.3616 19.4538C29.9284 15.1608 36.7271 12.8308 43.7214 12.8189C44.0092 12.8189 44.2975 12.8238 44.5865 12.8318L42.8752 14.1417C42.7484 14.2308 42.6407 14.345 42.5585 14.4775C42.4764 14.6099 42.4215 14.7577 42.3971 14.9122C42.3727 15.0667 42.3794 15.2245 42.4167 15.3763C42.4541 15.5281 42.5213 15.6707 42.6143 15.7954C42.7074 15.9202 42.8244 16.0247 42.9582 16.1024C43.0921 16.1802 43.2401 16.2298 43.3933 16.2481C43.5466 16.2665 43.7019 16.2532 43.8499 16.2092C43.998 16.1652 44.1358 16.0912 44.2549 15.9918L48.3916 12.8238C48.5215 12.7239 48.6289 12.5969 48.7066 12.4515C48.7842 12.3061 48.8303 12.1456 48.8419 11.9807C48.8534 11.8157 48.83 11.6502 48.7733 11.4951C48.7167 11.3401 48.628 11.1991 48.5132 11.0816L44.8742 7.34496C44.7685 7.23652 44.6428 7.15024 44.5042 7.09106C44.3656 7.03187 44.2169 7.00094 44.0665 7.00002C43.9162 6.9991 43.7671 7.02822 43.6278 7.08571C43.4885 7.14321 43.3618 7.22794 43.2548 7.33509C43.1479 7.44224 43.0628 7.56969 43.0044 7.71018C42.946 7.85067 42.9155 8.00144 42.9146 8.15389C42.9137 8.30633 42.9424 8.45746 42.9991 8.59865C43.0558 8.73984 43.1394 8.86833 43.2451 8.97677L44.744 10.5155C44.4025 10.5052 44.0617 10.4998 43.7214 10.4994C36.1433 10.4738 28.7746 13.0194 22.7888 17.731C16.9221 22.3358 12.6757 28.735 10.6794 35.9794C10.6393 36.1263 10.6281 36.2799 10.6465 36.4312C10.665 36.5825 10.7127 36.7287 10.7868 36.8613C10.861 36.9939 10.9602 37.1105 11.0788 37.2042C11.1975 37.298 11.3331 37.3665 11.4781 37.4071ZM61.6465 49.8646C61.2113 51.6113 60.5272 53.2843 59.6159 54.831L61.3922 56.6311C61.4985 56.7389 61.5829 56.8669 61.6405 57.0077C61.698 57.1486 61.7276 57.2995 61.7276 57.452C61.7276 57.6044 61.698 57.7554 61.6405 57.8962C61.5829 58.0371 61.4985 58.165 61.3922 58.2728L56.5675 63.1609C56.3527 63.3784 56.0615 63.5007 55.7578 63.5007C55.4542 63.5007 55.1629 63.3784 54.9481 63.1609L53.1749 61.3631C51.6493 62.2871 49.999 62.9806 48.276 63.4217V65.9626C48.276 66.2704 48.1554 66.5656 47.9407 66.7833C47.726 67.0009 47.4347 67.1232 47.1311 67.1232H40.3117C40.0081 67.1232 39.7169 67.0009 39.5022 66.7833C39.2875 66.5656 39.1669 66.2704 39.1669 65.9626V63.4217C37.4439 62.9806 35.7935 62.2871 34.268 61.3631L32.4965 63.1609C32.2817 63.3784 31.9905 63.5007 31.6868 63.5007C31.3832 63.5007 31.0919 63.3784 30.8771 63.1609L26.0531 58.2703C25.8384 58.0526 25.7179 57.7573 25.7179 57.4495C25.7179 57.1417 25.8384 56.8464 26.0531 56.6287L27.8264 54.831C26.9149 53.2844 26.2308 51.6113 25.7958 49.8646H23.2894C23.1391 49.8646 22.9902 49.8346 22.8513 49.7762C22.7124 49.7179 22.5862 49.6324 22.4799 49.5247C22.3736 49.4169 22.2892 49.2889 22.2317 49.1481C22.1742 49.0073 22.1446 48.8564 22.1446 48.7039V41.7925C22.1447 41.4848 22.2654 41.1897 22.4801 40.9722C22.6948 40.7547 22.9859 40.6325 23.2894 40.6325H25.7958C26.2309 38.8857 26.915 37.2127 27.8264 35.6661L26.0525 33.8684C25.9461 33.7606 25.8618 33.6326 25.8042 33.4918C25.7466 33.351 25.717 33.2 25.717 33.0476C25.717 32.8951 25.7466 32.7441 25.8042 32.6033C25.8618 32.4625 25.9461 32.3345 26.0525 32.2267L30.8747 27.3387C30.981 27.2309 31.1073 27.1453 31.2462 27.087C31.3851 27.0286 31.534 26.9986 31.6844 26.9986C31.8348 26.9986 31.9837 27.0286 32.1226 27.087C32.2615 27.1453 32.3878 27.2309 32.4941 27.3387L34.2674 29.1364C35.7929 28.2124 37.4433 27.5189 39.1662 27.0778V24.5363C39.1662 24.2285 39.2869 23.9333 39.5016 23.7156C39.7163 23.498 40.0075 23.3757 40.3111 23.3757H47.1305C47.2809 23.3756 47.4298 23.4056 47.5688 23.4639C47.7078 23.5222 47.8341 23.6076 47.9404 23.7154C48.0468 23.8232 48.1312 23.9512 48.1888 24.092C48.2463 24.2329 48.276 24.3839 48.276 24.5363V27.0772C49.9989 27.5184 51.6492 28.2119 53.1749 29.1358L54.9481 27.3374C55.1629 27.1198 55.4542 26.9976 55.7578 26.9976C56.0615 26.9976 56.3527 27.1198 56.5675 27.3374L61.3922 32.2255C61.4985 32.3333 61.5829 32.4612 61.6405 32.6021C61.698 32.7429 61.7276 32.8939 61.7276 33.0463C61.7276 33.1988 61.698 33.3497 61.6405 33.4906C61.5829 33.6314 61.4985 33.7594 61.3922 33.8672L59.6159 35.6655C60.5274 37.2122 61.2114 38.8855 61.6465 40.6325H64.1534C64.457 40.6325 64.7482 40.7547 64.9629 40.9724C65.1777 41.1901 65.2983 41.4853 65.2983 41.7931V48.7052C65.2983 49.013 65.1777 49.3082 64.9629 49.5259C64.7482 49.7435 64.457 49.8658 64.1534 49.8658H61.6465V49.8646ZM60.734 47.5427H63.0103V42.9538H60.7315C60.4667 42.9538 60.2101 42.8608 60.0053 42.6905C59.8006 42.5203 59.6603 42.2833 59.6086 42.0201C59.1972 39.9208 58.381 37.9246 57.2069 36.1459C57.0598 35.9227 56.9936 35.6546 57.0195 35.3874C57.0455 35.1203 57.162 34.8705 57.3492 34.6806L58.9589 33.0469L55.7566 29.8006L54.147 31.433C53.9597 31.6228 53.7134 31.741 53.4498 31.7674C53.1863 31.7938 52.9219 31.7269 52.7016 31.5779C50.9468 30.3877 48.9775 29.5603 46.9066 29.1432C46.647 29.0906 46.4133 28.9484 46.2454 28.7408C46.0775 28.5333 45.9857 28.2732 45.9856 28.0047V25.697H41.4566V28.0047C41.4567 28.2732 41.3649 28.5334 41.197 28.7409C41.029 28.9485 40.7953 29.0907 40.5356 29.1432C38.4647 29.5601 36.4954 30.3876 34.7406 31.5779C34.5203 31.7269 34.2559 31.7938 33.9924 31.7674C33.7289 31.741 33.4825 31.6228 33.2953 31.433L31.6844 29.8L28.4815 33.0469L30.0924 34.68C30.2796 34.8698 30.3962 35.1196 30.4222 35.3867C30.4483 35.6539 30.3823 35.9219 30.2354 36.1453C29.0612 37.9242 28.245 39.9206 27.8337 42.0201C27.7818 42.2833 27.6415 42.5202 27.4368 42.6904C27.2321 42.8606 26.9755 42.9537 26.7107 42.9538H24.4343V47.5452H26.7107C26.9755 47.5451 27.2321 47.6381 27.4369 47.8084C27.6417 47.9786 27.7819 48.2156 27.8337 48.4789C28.2449 50.5783 29.0611 52.5748 30.2354 54.3536C30.3823 54.577 30.4483 54.845 30.4222 55.1122C30.3962 55.3793 30.2796 55.6291 30.0924 55.8189L28.4815 57.452L31.6838 60.6983L33.2946 59.0653C33.4819 58.8755 33.7283 58.7573 33.9918 58.7309C34.2553 58.7045 34.5197 58.7714 34.74 58.9204C36.4951 60.1103 38.4646 60.9373 40.5356 61.3539C40.7952 61.4065 41.0289 61.5487 41.1968 61.7562C41.3647 61.9638 41.4565 62.2239 41.4566 62.4923V64.8001H45.9856V62.4942C45.9852 62.2254 46.0767 61.9648 46.2447 61.7568C46.4127 61.5489 46.6466 61.4064 46.9066 61.3539C48.9775 60.9368 50.9468 60.1094 52.7016 58.9191C52.9219 58.7702 53.1863 58.7032 53.4498 58.7297C53.7134 58.7561 53.9597 58.8742 54.147 59.0641L55.7578 60.6971L58.9589 57.452L57.348 55.8189C57.1607 55.6291 57.0441 55.3794 57.018 55.1122C56.9919 54.845 57.058 54.5769 57.2051 54.3536C58.3792 52.5747 59.1953 50.5783 59.6067 48.4789C59.6584 48.2155 59.7986 47.9784 60.0033 47.808C60.2081 47.6376 60.4648 47.5445 60.7297 47.5445L60.734 47.5427Z" fill="#003268"/>
<defs>
<linearGradient id="paint0_linear_1_1212" x1="21.5231" y1="8.32099" x2="44.802" y2="62.6376" gradientUnits="userSpaceOnUse">
<stop stop-color="#3D56E4"/>
<stop offset="1" stop-color="#3D56E4" stop-opacity="0"/>
</linearGradient>
</defs>
</svg>
