<svg width="76" height="80" viewBox="0 0 76 80" fill="none" xmlns="http://www.w3.org/2000/svg">
<path d="M17.6582 0C18.8093 0.00143092 19.9126 0.459829 20.7266 1.27441C21.5406 2.0891 21.9987 3.19356 22 4.3457V59.6543C21.9987 60.8064 21.5406 61.9109 20.7266 62.7256C19.9126 63.5402 18.8093 63.9986 17.6582 64H11.3418C10.1907 63.9986 9.08737 63.5402 8.27344 62.7256C7.45942 61.9109 7.00134 60.8064 7 59.6543V4.3457C7.00134 3.19356 7.45942 2.0891 8.27344 1.27441C9.08737 0.459829 10.1907 0.00143108 11.3418 0H17.6582ZM36.6582 36C37.8093 36.0015 38.9126 36.4671 39.7266 37.2939C40.5405 38.1209 40.9986 39.2417 41 40.4111V59.5889C40.9986 60.7583 40.5405 61.8791 39.7266 62.7061C38.9126 63.5329 37.8093 63.9985 36.6582 64H30.3418C29.1907 63.9985 28.0874 63.5329 27.2734 62.7061C26.4595 61.8791 26.0014 60.7583 26 59.5889V40.4111C26.0014 39.2417 26.4595 38.1209 27.2734 37.2939C28.0874 36.4671 29.1907 36.0015 30.3418 36H36.6582ZM55.6582 19C56.8093 19.0014 57.9126 19.4595 58.7266 20.2734C59.5405 21.0874 59.9986 22.1907 60 23.3418V59.6582C59.9986 60.8093 59.5405 61.9126 58.7266 62.7266C57.9126 63.5405 56.8093 63.9986 55.6582 64H49.3418C48.1907 63.9986 47.0874 63.5405 46.2734 62.7266C45.4595 61.9126 45.0014 60.8093 45 59.6582V23.3418C45.0014 22.1907 45.4595 21.0874 46.2734 20.2734C47.0874 19.4595 48.1907 19.0014 49.3418 19H55.6582Z" fill="url(#paint0_linear_1_1217)"/>
<path d="M21.1382 33.4446H9.19611C8.87888 33.4446 8.57465 33.5694 8.35033 33.7917C8.12602 34.0139 8 34.3153 8 34.6296C8 34.9439 8.12602 35.2453 8.35033 35.4676C8.57465 35.6898 8.87888 35.8147 9.19611 35.8147H21.1382C21.344 36.5278 21.7299 37.1771 22.2594 37.7014C22.7889 38.2257 23.4446 38.6076 24.1645 38.8111V64.6542C24.1639 65.1779 23.9536 65.6798 23.5799 66.0501C23.2062 66.4203 22.6995 66.6286 22.171 66.6293H15.7886C15.2601 66.6286 14.7534 66.4203 14.3797 66.0501C14.006 65.6798 13.7958 65.1779 13.7951 64.6542V39.3704C13.7951 39.0561 13.6691 38.7547 13.4448 38.5324C13.2205 38.3102 12.9162 38.1853 12.599 38.1853C12.2818 38.1853 11.9775 38.3102 11.7532 38.5324C11.5289 38.7547 11.4029 39.0561 11.4029 39.3704V64.6542C11.4042 65.8064 11.8668 66.911 12.6891 67.7257C13.5114 68.5404 14.6263 68.9987 15.7892 69H22.1691C23.332 68.9987 24.4469 68.5404 25.2693 67.7257C26.0916 66.911 26.5541 65.8064 26.5555 64.6542V38.8111C27.2046 38.6279 27.8024 38.2988 28.3022 37.8493L33.9068 41.3197C33.8916 41.3711 33.8775 41.423 33.8644 41.4752C32.9159 41.7116 32.0742 42.2548 31.4725 43.0187C30.8708 43.7826 30.5435 44.7235 30.5425 45.6924V64.6542C30.5438 65.8064 31.0064 66.911 31.8287 67.7257C32.651 68.5404 33.7659 68.9987 34.9289 69H41.3087C42.4716 68.9987 43.5865 68.5404 44.4089 67.7257C45.2312 66.911 45.6937 65.8064 45.6951 64.6542V45.6924C45.6939 44.7239 45.3666 43.7834 44.7652 43.0198C44.1638 42.2562 43.3225 41.7131 42.3745 41.4765C42.1639 40.6484 41.7121 39.9 41.0752 39.3246L51.656 18.3551C52.7329 18.5568 53.847 18.3521 54.7792 17.7812C55.7115 17.2104 56.3946 16.3147 56.6942 15.2703H71.9158L70.7677 16.4114C70.6567 16.5215 70.5686 16.6521 70.5084 16.7959C70.4483 16.9397 70.4174 17.0938 70.4174 17.2494C70.4174 17.4051 70.4483 17.5592 70.5084 17.7029C70.5686 17.8467 70.6567 17.9774 70.7677 18.0874C70.8788 18.1975 71.0107 18.2848 71.1558 18.3443C71.3009 18.4039 71.4565 18.4345 71.6136 18.4345C71.7706 18.4345 71.9262 18.4039 72.0713 18.3443C72.2164 18.2848 72.3483 18.1975 72.4594 18.0874L75.6496 14.9267C75.7607 14.8167 75.8488 14.686 75.9089 14.5422C75.9691 14.3984 76 14.2443 76 14.0887C76 13.9331 75.9691 13.779 75.9089 13.6352C75.8488 13.4914 75.7607 13.3608 75.6496 13.2507L72.4594 10.09C72.3483 9.97996 72.2164 9.89266 72.0713 9.83311C71.9262 9.77355 71.7706 9.7429 71.6136 9.7429C71.4565 9.7429 71.3009 9.77355 71.1558 9.83311C71.0107 9.89266 70.8788 9.97996 70.7677 10.09C70.6567 10.2001 70.5686 10.3307 70.5084 10.4745C70.4483 10.6183 70.4174 10.7724 70.4174 10.928C70.4174 11.0836 70.4483 11.2377 70.5084 11.3815C70.5686 11.5253 70.6567 11.6559 70.7677 11.766L71.9158 12.9034H56.6936C56.509 12.2562 56.1753 11.6602 55.7188 11.1625C55.2623 10.6647 54.6954 10.2788 54.0627 10.0349C53.4301 9.79111 52.749 9.69608 52.073 9.75734C51.397 9.81859 50.7445 10.0345 50.167 10.3879C49.5895 10.7414 49.1027 11.2229 48.7449 11.7944C48.3871 12.366 48.1681 13.012 48.1051 13.6816C48.042 14.3512 48.1368 15.0262 48.3817 15.6534C48.6267 16.2807 49.0153 16.843 49.5169 17.2961L38.9355 38.2631C38.2698 38.1382 37.5839 38.1678 36.9317 38.3496C36.2795 38.5313 35.6786 38.8604 35.1763 39.3108L29.5717 35.8404C29.7326 35.2901 29.7821 34.7137 29.7175 34.1443C29.6528 33.575 29.4752 33.0239 29.1948 32.5228C28.9144 32.0217 28.5369 31.5805 28.0838 31.2244C27.6308 30.8684 27.1112 30.6046 26.5548 30.4481V9.34575C26.5535 8.1937 26.091 7.08921 25.2688 6.27453C24.4467 5.45985 23.3319 5.00149 22.1691 5H15.7886C14.6257 5.00133 13.5108 5.45961 12.6885 6.27431C11.8662 7.08901 11.4036 8.19359 11.4023 9.34575V29.9415C11.4023 30.2558 11.5283 30.5572 11.7526 30.7795C11.9769 31.0017 12.2811 31.1266 12.5984 31.1266C12.9156 31.1266 13.2198 31.0017 13.4441 30.7795C13.6685 30.5572 13.7945 30.2558 13.7945 29.9415V9.34575C13.7951 8.82214 14.0054 8.32016 14.3791 7.94991C14.7528 7.57966 15.2595 7.37136 15.788 7.3707H22.1691C22.698 7.37086 23.2051 7.57894 23.5792 7.94925C23.9533 8.31955 24.1639 8.82181 24.1645 9.34575V30.4481C23.4446 30.6516 22.789 31.0336 22.2595 31.5579C21.7299 32.0821 21.344 32.7315 21.1382 33.4446ZM52.4736 12.1115C52.8679 12.1115 53.2533 12.2273 53.5812 12.4443C53.909 12.6613 54.1645 12.9698 54.3154 13.3307C54.4663 13.6916 54.5058 14.0887 54.4288 14.4718C54.3519 14.855 54.1621 15.2069 53.8833 15.4831C53.6045 15.7593 53.2493 15.9474 52.8626 16.0236C52.4759 16.0998 52.075 16.0607 51.7108 15.9112C51.3465 15.7617 51.0351 15.5086 50.8161 15.1838C50.597 14.859 50.4801 14.4771 50.4801 14.0865C50.4806 13.5628 50.6908 13.0607 51.0645 12.6903C51.4383 12.3199 51.945 12.1115 52.4736 12.1108V12.1115ZM38.1191 40.5554C38.5134 40.5554 38.8988 40.6712 39.2266 40.8883C39.5545 41.1053 39.81 41.4138 39.9609 41.7747C40.1117 42.1355 40.1512 42.5327 40.0743 42.9158C39.9974 43.2989 39.8075 43.6508 39.5287 43.927C39.2499 44.2033 38.8947 44.3914 38.508 44.4676C38.1213 44.5438 37.7205 44.5047 37.3562 44.3552C36.9919 44.2057 36.6806 43.9526 36.4616 43.6278C36.2425 43.303 36.1256 42.9211 36.1256 42.5305C36.1263 42.0069 36.3365 41.5049 36.7102 41.1346C37.0839 40.7644 37.5906 40.5561 38.1191 40.5554ZM38.1191 46.8762C39.0301 46.8752 39.9182 46.5938 40.6606 46.0708C41.403 45.5478 41.963 44.8091 42.2631 43.9569C42.5777 44.1268 42.8403 44.3775 43.0234 44.6827C43.2065 44.9878 43.3032 45.3362 43.3035 45.6912V64.6542C43.3028 65.1779 43.0926 65.6798 42.7189 66.0501C42.3452 66.4203 41.8385 66.6286 41.31 66.6293H34.9289C34.4003 66.6286 33.8937 66.4203 33.52 66.0501C33.1463 65.6798 32.936 65.1779 32.9353 64.6542V45.6924C32.9352 45.3374 33.0316 44.9889 33.2143 44.6835C33.397 44.3781 33.6594 44.1272 33.9739 43.9569C34.274 44.8093 34.8342 45.5481 35.5768 46.0711C36.3195 46.5942 37.2079 46.8755 38.1191 46.8762ZM25.3587 32.6546C25.753 32.6546 26.1384 32.7704 26.4663 32.9874C26.7941 33.2044 27.0496 33.5129 27.2005 33.8738C27.3514 34.2347 27.3909 34.6318 27.3139 35.0149C27.237 35.3981 27.0472 35.75 26.7684 36.0262C26.4896 36.3024 26.1343 36.4905 25.7476 36.5667C25.3609 36.6429 24.9601 36.6038 24.5958 36.4543C24.2316 36.3048 23.9202 36.0517 23.7012 35.7269C23.4821 35.4021 23.3652 35.0202 23.3652 34.6296C23.3659 34.106 23.5761 33.604 23.9498 33.2338C24.3236 32.8635 24.8302 32.6552 25.3587 32.6546Z" fill="#003268"/>
<path d="M71.4934 71.6629C71.3834 71.553 71.2528 71.4658 71.109 71.4062C70.9653 71.3467 70.8113 71.3161 70.6557 71.3161C70.5001 71.3161 70.3461 71.3467 70.2023 71.4062C70.0586 71.4658 69.928 71.553 69.818 71.6629C69.708 71.7729 69.6207 71.9034 69.5612 72.0471C69.5017 72.1908 69.471 72.3447 69.471 72.5002C69.471 72.6557 69.5017 72.8097 69.5612 72.9534C69.6207 73.0971 69.708 73.2276 69.818 73.3375L70.955 74.474H7.46833C6.9449 74.4733 6.4431 74.2652 6.07298 73.8953C5.70286 73.5253 5.49463 73.0237 5.49397 72.5006V9.0435L6.63095 10.1799C6.85579 10.3868 7.15188 10.4987 7.45738 10.4925C7.76287 10.4862 8.05413 10.3622 8.27032 10.1464C8.4865 9.93057 8.61088 9.63958 8.61747 9.33424C8.62407 9.0289 8.51237 8.73282 8.30571 8.50785L5.14673 5.34659C4.92449 5.12466 4.62319 5 4.30904 5C3.99489 5 3.69359 5.12466 3.47135 5.34659L0.311746 8.50785C0.105167 8.73289 -0.00642357 9.02902 0.000285936 9.33436C0.00699545 9.6397 0.131486 9.93064 0.347751 10.1464C0.564016 10.3622 0.855325 10.4861 1.16082 10.4922C1.46632 10.4983 1.76237 10.3862 1.98713 10.1793L3.12411 9.04287V72.4999C3.12544 73.6511 3.58356 74.7548 4.39797 75.5689C5.21238 76.3829 6.31658 76.8408 7.46833 76.8421H70.955L69.818 77.9786C69.5958 78.2006 69.471 78.5018 69.471 78.8159C69.471 79.1299 69.5958 79.4311 69.818 79.6532C70.0402 79.8752 70.3415 80 70.6557 80C70.9699 80 71.2712 79.8752 71.4934 79.6532L74.653 76.495C74.763 76.3851 74.8503 76.2546 74.9098 76.1109C74.9694 75.9672 75 75.8132 75 75.6577C75 75.5022 74.9694 75.3483 74.9098 75.2046C74.8503 75.0609 74.763 74.9304 74.653 74.8204L71.4934 71.6629Z" fill="#003268"/>
<path d="M54.3422 24C53.191 24.0013 52.0873 24.4592 51.2733 25.2733C50.4592 26.0873 50.0013 27.191 50 28.3422V64.6578C50.0013 65.809 50.4592 66.9127 51.2733 67.7267C52.0873 68.5408 53.191 68.9987 54.3422 69H60.6578C61.809 68.9987 62.9127 68.5408 63.7267 67.7267C64.5408 66.9127 64.9987 65.809 65 64.6578V28.3422C64.9987 27.191 64.5408 26.0873 63.7267 25.2733C62.9127 24.4592 61.809 24.0013 60.6578 24H54.3422ZM62.6319 28.3422V64.6578C62.6312 65.181 62.4231 65.6826 62.0531 66.0525C61.6832 66.4225 61.1816 66.6306 60.6584 66.6312H54.3422C53.819 66.6306 53.3174 66.4225 52.9475 66.0525C52.5775 65.6826 52.3694 65.181 52.3688 64.6578V28.3422C52.3694 27.819 52.5775 27.3174 52.9475 26.9475C53.3174 26.5775 53.819 26.3694 54.3422 26.3687H60.6578C61.1811 26.3692 61.6828 26.5773 62.0529 26.9473C62.423 27.3172 62.6312 27.8189 62.6319 28.3422Z" fill="#003268"/>
<defs>
<linearGradient id="paint0_linear_1_1217" x1="25.133" y1="5.19826" x2="43.4132" y2="67.6739" gradientUnits="userSpaceOnUse">
<stop stop-color="#3D56E4"/>
<stop offset="1" stop-color="#3D56E4" stop-opacity="0"/>
</linearGradient>
</defs>
</svg>
