<svg width="282" height="66" viewBox="0 0 282 66" fill="none" xmlns="http://www.w3.org/2000/svg">
<path d="M28.4584 57.8022C22.314 57.8096 16.3851 55.539 11.8174 51.4292C7.24981 47.3195 4.36787 41.6624 3.72859 35.5513C3.08931 29.4403 4.7381 23.3093 8.3563 18.3432C11.9745 13.3771 17.3052 9.92858 23.3181 8.66419C29.331 7.3998 35.5992 8.40931 40.911 11.4976C46.2229 14.5858 50.2012 19.5336 52.0773 25.3846C53.9534 31.2355 53.594 37.5742 51.0685 43.1755C48.5429 48.7768 44.0306 53.2431 38.4036 55.711C35.2684 57.0869 31.8822 57.7989 28.4584 57.8022ZM28.4584 16.7765C26.2187 16.7692 24.0023 17.2315 21.9523 18.1335C18.0082 19.8591 14.9112 23.0807 13.3424 27.0897C11.7737 31.0987 11.8619 35.5667 13.5874 39.5108C15.3129 43.4548 18.5346 46.5519 22.5436 48.1206C26.5526 49.6894 31.0204 49.6013 34.9645 47.8758C38.3771 46.3841 41.1719 43.7627 42.8789 40.4525C44.5858 37.1424 45.101 33.3454 44.3375 29.7002C43.574 26.0549 41.5785 22.7838 38.6866 20.4369C35.7947 18.09 32.1827 16.8105 28.4584 16.8137" fill="white"/>
<path d="M31.6105 66C30.0288 65.9235 28.4541 65.7372 26.8982 65.4423L31.1086 43.4888C31.603 43.5802 32.103 43.6392 32.6051 43.6654H33.0789L32.9675 65.9721C32.5121 65.9721 32.0381 65.9721 31.6105 65.9721M39.0461 65.4516L34.9936 43.4702C35.6283 43.347 36.2504 43.1667 36.8525 42.9312L45.1247 63.7042L44.8365 63.8158C42.9493 64.5417 40.9982 65.0894 39.0089 65.4516M20.987 63.7322C19.0956 62.9917 17.2755 62.0801 15.5497 61.0088L27.3815 42.0296C27.9429 42.3755 28.5338 42.671 29.1474 42.9126L20.987 63.7322ZM50.4411 61.0553L38.6649 42.0389C39.22 41.6969 39.7428 41.3049 40.2265 40.8678L55.3207 57.3747C53.8153 58.7653 52.1814 60.0102 50.4411 61.0925M10.6794 57.3747C9.17726 56.0015 7.80511 54.4925 6.58053 52.8669L24.5374 39.4271C24.9359 39.9494 25.3809 40.4347 25.8666 40.8771L10.6794 57.3747ZM59.4381 52.9134L41.6021 39.4271C41.9986 38.8986 42.3469 38.3356 42.6429 37.7448L62.7004 47.7271C61.7882 49.542 60.7151 51.2715 59.4939 52.8948M3.4297 47.6527C2.97427 46.7233 2.56536 45.7938 2.19358 44.8644C1.8218 43.9349 1.52438 43.0055 1.26413 42.0203L22.8087 35.9138C22.9017 36.2298 23.0038 36.5551 23.1246 36.8433C23.2454 37.1314 23.385 37.466 23.5337 37.7727L3.4297 47.6527ZM64.894 42.076L43.3586 35.9417C43.5392 35.31 43.6607 34.6627 43.7212 34.0085L66.0279 36.0997C65.837 38.1228 65.4574 40.1236 64.894 42.076ZM0.130237 36.0161C-0.00290551 34.5235 -0.03405 33.0236 0.037202 31.5269C0.037202 30.9785 0.0929642 30.4487 0.148731 29.9096L22.4554 32.0287C22.4554 32.2053 22.4554 32.3726 22.4554 32.5492C22.4229 33.0289 22.4229 33.5102 22.4554 33.9899L0.130237 36.0161ZM43.7212 32.0566C43.6644 31.4049 43.5429 30.7604 43.3586 30.1327L64.9033 23.9984C65.462 25.9546 65.8384 27.9584 66.0279 29.984L43.7212 32.0566ZM22.818 30.1048L1.28274 23.924C1.84735 21.9729 2.59098 20.078 3.50413 18.2637L23.5337 28.2738C23.2383 28.87 22.9987 29.4923 22.818 30.1327M42.6429 28.2738C42.3513 27.6885 42.006 27.1316 41.6114 26.6101L59.5032 13.1517C60.7331 14.7756 61.8067 16.5121 62.7097 18.338L42.6429 28.2738ZM24.5932 26.5636L6.72928 13.0774C7.96334 11.4568 9.34137 9.95117 10.8467 8.57885L25.9222 25.123C25.4367 25.5621 24.9919 26.0443 24.5932 26.5636ZM40.3193 25.1509C39.8301 24.7069 39.3012 24.3086 38.7393 23.9612L50.5432 4.95399C52.2757 6.03928 53.9031 7.28394 55.4042 8.67177L40.3193 25.1509ZM27.4839 23.9426L15.7355 4.90753C17.4695 3.84696 19.2956 2.94488 21.1915 2.21217L29.2404 23.0689C28.6195 23.3036 28.0221 23.5961 27.4559 23.9426M36.9362 23.0782C36.336 22.8374 35.7133 22.6569 35.0774 22.5391L39.2319 0.567036C41.2155 0.949448 43.16 1.51256 45.041 2.24933L36.9362 23.0782ZM31.1458 22.5298L27.0191 0.557732C29.0297 0.18204 31.0708 -0.00464057 33.1161 8.7601e-05V22.3068C32.4673 22.3083 31.8202 22.3705 31.183 22.4927" fill="#009BDD"/>
<path d="M82.1721 43.9071H76.7443V27.6046H70.8516V22.8737H88.037V27.6046H82.1721V43.9071Z" fill="white"/>
<path d="M106.03 43.8606H90.6016V22.8272H106.03V27.5581H96.0296V30.8297H105.807V35.5699H96.0296V39.1297H106.03V43.8606Z" fill="white"/>
<path d="M130.19 43.9071H123.786L119.213 36.8433L114.64 43.9071H108.199L115.551 33.1256L108.673 22.8737H115.077L119.213 29.4635L123.284 22.8737H129.716L122.866 33.0883L130.19 43.9071Z" fill="white"/>
<path d="M151.874 43.9071H146.446V35.4585H137.709V43.9071H132.281V22.8737H137.709V30.7276H146.446V22.8737H151.874V43.9071Z" fill="white"/>
<path d="M173.761 41.2302C171.546 43.2081 168.681 44.3014 165.712 44.3014C162.742 44.3014 159.877 43.2081 157.662 41.2302C155.61 39.1441 154.461 36.3351 154.461 33.4089C154.461 30.4827 155.61 27.6737 157.662 25.5876C159.877 23.6096 162.742 22.5164 165.712 22.5164C168.681 22.5164 171.546 23.6096 173.761 25.5876C175.813 27.6737 176.963 30.4827 176.963 33.4089C176.963 36.3351 175.813 39.1441 173.761 41.2302ZM165.721 39.4921C166.494 39.5226 167.264 39.3827 167.978 39.0823C168.691 38.782 169.329 38.3285 169.848 37.7541C170.869 36.5346 171.428 34.9948 171.428 33.4043C171.428 31.8138 170.869 30.274 169.848 29.0545C169.307 28.5037 168.662 28.0661 167.95 27.7675C167.238 27.4688 166.474 27.3149 165.702 27.3149C164.93 27.3149 164.166 27.4688 163.454 27.7675C162.743 28.0661 162.098 28.5037 161.557 29.0545C160.536 30.274 159.976 31.8138 159.976 33.4043C159.976 34.9948 160.536 36.5346 161.557 37.7541C162.082 38.3304 162.727 38.7847 163.446 39.085C164.165 39.3853 164.942 39.5242 165.721 39.4921Z" fill="white"/>
<path d="M184.958 43.9071H179.539V22.8737H194.959V27.6046H184.958V43.9071Z" fill="white"/>
<path d="M203.045 43.9071H197.617V22.8737H208.157C209.141 22.8188 210.125 22.968 211.048 23.3119C211.971 23.6558 212.812 24.187 213.52 24.872C214.164 25.5324 214.668 26.3153 215.003 27.1743C215.338 28.0332 215.498 28.9507 215.472 29.8724C215.497 30.7884 215.337 31.7002 215.002 32.553C214.666 33.4058 214.163 34.1822 213.52 34.8357C212.813 35.5224 211.972 36.0553 211.049 36.4008C210.126 36.7463 209.141 36.897 208.157 36.8433H203.045V43.9071ZM207.432 32.1124C208.103 32.1445 208.763 31.9333 209.291 31.5175C209.525 31.314 209.71 31.0604 209.832 30.7756C209.954 30.4908 210.011 30.1821 209.997 29.8724C210.013 29.5584 209.958 29.2449 209.835 28.9553C209.713 28.6656 209.527 28.4072 209.291 28.1994C208.763 27.7837 208.103 27.5725 207.432 27.6046H203.045V32.1124H207.432Z" fill="white"/>
<path d="M258.96 43.9071H253.532V27.6046H244.795V43.9071H239.367V22.8737H258.96V43.9071Z" fill="white"/>
<path d="M281.093 43.9071H275.674V27.6046H266.928V43.9071H261.5V22.8737H281.093V43.9071Z" fill="white"/>
<path d="M224.351 37.9029L216.758 22.8551H222.874L227.409 32.6887L231.982 22.8551H238.107L227.446 43.9071H221.089C221.089 43.9071 224.017 38.4977 224.351 37.9029Z" fill="white"/>
<path d="M96.8959 54.7165L96.0872 55.646V58.36H95.0742V50.2738H96.0872V54.4563L99.6656 50.2738H100.92L97.5558 54.1217L101.218 58.36H99.9631L96.8959 54.7165Z" fill="#009BDD"/>
<path d="M106.198 50.1344C107.031 50.101 107.856 50.3177 108.565 50.7565C109.275 51.1953 109.837 51.8363 110.179 52.597C110.522 53.3577 110.629 54.2034 110.487 55.0254C110.345 55.8475 109.96 56.6083 109.382 57.2101C108.805 57.8119 108.06 58.2271 107.245 58.4025C106.429 58.5779 105.58 58.5055 104.806 58.1944C104.032 57.8834 103.368 57.348 102.901 56.657C102.433 55.9661 102.183 55.1511 102.183 54.3169C102.151 53.7734 102.231 53.2291 102.419 52.7183C102.608 52.2074 102.899 51.741 103.276 51.3483C103.653 50.9555 104.107 50.645 104.61 50.4361C105.113 50.2272 105.654 50.1245 106.198 50.1344ZM106.198 51.0638C104.339 51.0638 103.224 52.458 103.224 54.3541C103.281 54.9306 103.505 55.478 103.868 55.9299C104.23 56.3817 104.716 56.7186 105.267 56.8996C105.817 57.0807 106.408 57.098 106.968 56.9496C107.528 56.8012 108.033 56.4934 108.422 56.0636C108.81 55.6338 109.066 55.1004 109.157 54.5282C109.248 53.956 109.172 53.3697 108.936 52.8403C108.701 52.3109 108.317 51.8613 107.831 51.5459C107.345 51.2306 106.777 51.0631 106.198 51.0638Z" fill="#009BDD"/>
<path d="M119.398 51.6215L116.609 58.3506H116.191L113.458 51.6215V58.3506H112.445V50.2645H113.895L116.405 56.4267L118.924 50.2645H120.364V58.3506H119.398V51.6215Z" fill="#009BDD"/>
<path d="M128.803 51.1661H124.044V58.3506H123.031V50.2645H129.779V58.3506H128.775L128.803 51.1661Z" fill="#009BDD"/>
<path d="M134.014 52.5974L134.219 50.2645H139.163V58.3506H138.16V51.1661H135.083L134.944 52.6346C134.46 57.951 133.308 58.4994 131.867 58.4994V57.5142C132.834 57.5142 133.615 56.8635 134.014 52.5974Z" fill="#009BDD"/>
<path d="M141.797 50.2645H147.095V51.1939H142.801V53.7964H147.011V54.7258H142.801V57.5142H147.095V58.4436H141.797V50.2645Z" fill="#009BDD"/>
<path d="M151.24 54.7165L150.431 55.646V58.36H149.418V50.2738H150.431V54.4563L154.009 50.2738H155.264L151.927 54.1124L155.589 58.3507H154.335L151.24 54.7165Z" fill="#009BDD"/>
<path d="M156.573 54.2983C156.554 53.7486 156.647 53.2008 156.847 52.6884C157.047 52.1761 157.349 51.7098 157.735 51.3183C158.122 50.9268 158.584 50.6182 159.094 50.4115C159.603 50.2047 160.15 50.1041 160.699 50.1158C161.31 50.0993 161.914 50.2372 162.457 50.5167C163 50.7962 163.463 51.2081 163.804 51.7144L162.958 52.1884C162.703 51.8264 162.364 51.5304 161.972 51.3251C161.579 51.1199 161.143 51.0112 160.699 51.0081C159.87 51.0705 159.094 51.4442 158.528 52.0544C157.962 52.6645 157.647 53.466 157.647 54.2983C157.647 55.1305 157.962 55.932 158.528 56.5422C159.094 57.1524 159.87 57.5261 160.699 57.5885C161.143 57.5854 161.579 57.4767 161.972 57.2715C162.364 57.0662 162.703 56.7702 162.958 56.4082L163.813 56.8822C163.465 57.3838 162.999 57.792 162.456 58.0708C161.913 58.3496 161.31 58.4904 160.699 58.4808C160.15 58.4925 159.603 58.3919 159.094 58.1851C158.584 57.9784 158.122 57.6698 157.735 57.2783C157.349 56.8867 157.047 56.4205 156.847 55.9081C156.647 55.3958 156.554 54.848 156.573 54.2983Z" fill="#009BDD"/>
<path d="M171.52 54.6422H166.798V58.36H165.785V50.2738H166.798V53.7592H171.52V50.2738H172.533V58.36H171.52V54.6422Z" fill="#009BDD"/>
<path d="M176.159 53.4804H178.399C179.044 53.4804 179.664 53.7369 180.12 54.1936C180.577 54.6503 180.834 55.2697 180.834 55.9155C180.834 56.5613 180.577 57.1807 180.12 57.6374C179.664 58.0941 179.044 58.3506 178.399 58.3506H175.164V50.2645H176.168L176.159 53.4804ZM176.159 57.4584H178.278C178.687 57.4584 179.079 57.2959 179.369 57.0065C179.658 56.7172 179.821 56.3247 179.821 55.9155C179.821 55.5063 179.658 55.1139 179.369 54.8246C179.079 54.5352 178.687 54.3727 178.278 54.3727H176.159V57.4584ZM181.81 50.2645H182.813V58.3506H181.81V50.2645Z" fill="#009BDD"/>
<path d="M185.434 50.2645H190.741V51.1939H186.447V53.7964H190.657V54.7258H186.447V57.5142H190.741V58.4436H185.434V50.2645Z" fill="#009BDD"/>
<path d="M196.93 50.2643H200.173C200.507 50.2438 200.84 50.2917 201.154 50.405C201.468 50.5183 201.755 50.6946 201.999 50.9232C202.242 51.1518 202.435 51.4277 202.568 51.734C202.7 52.0403 202.769 52.3704 202.769 52.7041C202.769 53.0378 202.7 53.368 202.568 53.6743C202.435 53.9806 202.242 54.2566 201.999 54.4851C201.755 54.7137 201.468 54.8901 201.154 55.0034C200.84 55.1167 200.507 55.1645 200.173 55.1439H197.934V58.3505H196.93V50.2643ZM200.053 51.1938H197.934V54.2703H200.053C200.265 54.2868 200.478 54.2592 200.679 54.1894C200.88 54.1196 201.064 54.009 201.22 53.8645C201.376 53.7201 201.501 53.5449 201.586 53.3501C201.671 53.1552 201.715 52.9448 201.715 52.7321C201.715 52.5194 201.671 52.3089 201.586 52.114C201.501 51.9192 201.376 51.744 201.22 51.5996C201.064 51.4551 200.88 51.3445 200.679 51.2747C200.478 51.2049 200.265 51.1773 200.053 51.1938Z" fill="#009BDD"/>
<path d="M204.773 50.2645H210.071V51.1939H205.777V53.7964H209.987V54.7258H205.777V57.5142H210.071V58.4436H204.773V50.2645Z" fill="#009BDD"/>
<path d="M222.128 58.3506H212.406V50.2645H213.41V57.4584H216.765V50.2645H217.778V57.4584H221.124V50.2645H222.128V58.3506Z" fill="#009BDD"/>
<path d="M224.75 50.2645H230.057V51.1939H225.763V53.7964H230.001V54.7258H225.8V57.5142H230.094V58.4436H224.787L224.75 50.2645Z" fill="#009BDD"/>
<path d="M238.123 54.6422H233.392V58.36H232.379V50.2738H233.392V53.7592H238.123V50.2738H239.127V58.36H238.123V54.6422Z" fill="#009BDD"/>
<path d="M242.753 50.2645V56.7706L247.401 50.2645H248.432V58.3506H247.428V51.6958L242.707 58.3506H241.777V50.2645H242.753Z" fill="#009BDD"/>
<path d="M252.872 55.0604C252.282 55.0244 251.729 54.7575 251.334 54.3174C250.94 53.8773 250.734 53.2995 250.762 52.7089C250.749 52.3756 250.807 52.0434 250.932 51.7342C251.056 51.4249 251.245 51.1455 251.486 50.9146C251.727 50.6836 252.014 50.5063 252.328 50.3942C252.642 50.2822 252.976 50.2379 253.309 50.2644H256.552V58.3506H255.548V55.144H253.922L251.859 58.3506H250.688L252.872 55.0604ZM255.548 51.166H253.411C253.197 51.1495 252.983 51.1772 252.781 51.2475C252.579 51.3177 252.393 51.429 252.236 51.5744C252.079 51.7197 251.954 51.8958 251.869 52.0919C251.783 52.2879 251.739 52.4996 251.739 52.7135C251.739 52.9275 251.783 53.1391 251.869 53.3352C251.954 53.5312 252.079 53.7074 252.236 53.8528C252.393 53.9981 252.579 54.1094 252.781 54.1796C252.983 54.2499 253.197 54.2776 253.411 54.2611H255.548V51.166Z" fill="#009BDD"/>
</svg>
