<svg width="1920" height="721" viewBox="0 0 1920 721" fill="none" xmlns="http://www.w3.org/2000/svg">
<path d="M0 432.99V424.317L627.948 315.128L629.335 323.546L0 432.99Z" fill="#009BD6"/>
<path d="M2038.07 -458H2027.77L872.81 227.465L1828.61 -457.945H1820.42L876.903 218.659L1653.08 -458H1646.54L881.272 209.121L1504.46 -458H1499.24L885.697 198.807L1377.51 -458H1373.34L889.834 187.705L1268.23 -458H1264.9L893.472 175.838L1173.56 -458H1170.95L896.411 163.283L1091.14 -458H1089.14L898.53 150.162L1019.06 -457.978H1017.58L899.749 136.598L955.791 -458H954.826L898.618 138.473C898.157 143.356 897.45 148.212 896.5 153.024L896.078 155.131C895.065 160.243 893.777 165.297 892.219 170.27L891.964 171.102C890.335 176.267 888.425 181.34 886.241 186.296V186.407C884.012 191.43 881.505 196.324 878.733 201.069C875.986 205.757 872.975 210.286 869.716 214.633L869.405 215.054C866.264 219.245 862.899 223.262 859.324 227.088L858.215 228.264C854.838 231.873 851.281 235.308 847.556 238.556L845.194 240.608C841.748 243.61 838.166 246.449 834.447 249.125L830.377 252.042C826.983 254.467 823.493 256.748 819.907 258.885L813.818 262.501C810.58 264.423 807.253 266.216 803.837 267.88L795.496 271.983C792.457 273.462 789.374 274.849 786.247 276.142L775.577 280.501C772.775 281.64 769.943 282.693 767.082 283.662L754.017 288.098C751.451 288.963 748.863 289.751 746.253 290.461L727.321 295.684L702.922 301.119L627.926 314.162L629.312 322.579L716.452 306.986L1999.11 81.0225V72.771L871.834 271.296L1999.11 20.4891V12.6368L867.675 264.397L1999.11 -47.2533V-54.6841L865.634 257.543L1999.11 -124.068V-131.543L865.435 250.556L1999.11 -212.007V-218.661L866.743 243.325L1999.11 -314.197V-320.585L869.327 235.65L2038.07 -458Z" fill="url(#paint0_linear_1_420)"/>
<path d="M878.078 278.583L0 432.123V720.805L878.078 720.339V278.583Z" fill="url(#paint1_linear_1_420)"/>
<defs>
<linearGradient id="paint0_linear_1_420" x1="1329.23" y1="217.073" x2="1333.6" y2="-116.826" gradientUnits="userSpaceOnUse">
<stop stop-color="#009BD6"/>
<stop offset="0.75" stop-color="#123369"/>
</linearGradient>
<linearGradient id="paint1_linear_1_420" x1="917.916" y1="584.133" x2="-19.0539" y2="418.925" gradientUnits="userSpaceOnUse">
<stop offset="0.15" stop-color="#475E9C" stop-opacity="0"/>
<stop offset="0.45" stop-color="#475E9C"/>
<stop offset="0.9" stop-color="#009BD6"/>
</linearGradient>
</defs>
</svg>
